<?xml version="1.0" encoding="utf-8" standalone="no"?>
<!DOCTYPE svg PUBLIC "-//W3C//DTD SVG 1.1//EN"
  "http://www.w3.org/Graphics/SVG/1.1/DTD/svg11.dtd">
<svg xmlns:xlink="http://www.w3.org/1999/xlink" width="648pt" height="396pt" viewBox="0 0 648 396" xmlns="http://www.w3.org/2000/svg" version="1.1">
 <metadata>
  <rdf:RDF xmlns:dc="http://purl.org/dc/elements/1.1/" xmlns:cc="http://creativecommons.org/ns#" xmlns:rdf="http://www.w3.org/1999/02/22-rdf-syntax-ns#">
   <cc:Work>
    <dc:type rdf:resource="http://purl.org/dc/dcmitype/StillImage"/>
    <dc:date>2026-06-26T22:03:16.181415</dc:date>
    <dc:format>image/svg+xml</dc:format>
    <dc:creator>
     <cc:Agent>
      <dc:title>Matplotlib v3.9.1, https://matplotlib.org/</dc:title>
     </cc:Agent>
    </dc:creator>
   </cc:Work>
  </rdf:RDF>
 </metadata>
 <defs>
  <style type="text/css">*{stroke-linejoin: round; stroke-linecap: butt}</style>
 </defs>
 <g id="figure_1">
  <g id="patch_1">
   <path d="M 0 396 
L 648 396 
L 648 0 
L 0 0 
z
" style="fill: #ffffff"/>
  </g>
  <g id="axes_1">
   <g id="patch_2">
    <path d="M 116.75127 134.64 
Q 125.552994 134.64 132.118651 134.64 
" clip-path="url(#p1af1b649ff)" style="fill: none; stroke: #1f2933; stroke-width: 2; stroke-linecap: round"/>
    <path d="M 125.718651 131.44 
L 132.118651 134.64 
L 125.718651 137.84 
z
" clip-path="url(#p1af1b649ff)" style="fill: #1f2933; stroke: #1f2933; stroke-width: 2; stroke-linecap: round"/>
   </g>
   <g id="patch_3">
    <path d="M 227.45127 134.64 
Q 236.252994 134.64 242.818651 134.64 
" clip-path="url(#p1af1b649ff)" style="fill: none; stroke: #1f2933; stroke-width: 2; stroke-linecap: round"/>
    <path d="M 236.418651 131.44 
L 242.818651 134.64 
L 236.418651 137.84 
z
" clip-path="url(#p1af1b649ff)" style="fill: #1f2933; stroke: #1f2933; stroke-width: 2; stroke-linecap: round"/>
   </g>
   <g id="patch_4">
    <path d="M 338.15127 134.64 
Q 346.952994 134.64 353.518651 134.64 
" clip-path="url(#p1af1b649ff)" style="fill: none; stroke: #1f2933; stroke-width: 2; stroke-linecap: round"/>
    <path d="M 347.118651 131.44 
L 353.518651 134.64 
L 347.118651 137.84 
z
" clip-path="url(#p1af1b649ff)" style="fill: #1f2933; stroke: #1f2933; stroke-width: 2; stroke-linecap: round"/>
   </g>
   <g id="patch_5">
    <path d="M 448.847644 134.64 
Q 461.699549 134.64 472.315386 134.64 
" clip-path="url(#p1af1b649ff)" style="fill: none; stroke: #1f2933; stroke-width: 2; stroke-linecap: round"/>
    <path d="M 465.915386 131.44 
L 472.315386 134.64 
L 465.915386 137.84 
z
" clip-path="url(#p1af1b649ff)" style="fill: #1f2933; stroke: #1f2933; stroke-width: 2; stroke-linecap: round"/>
   </g>
   <g id="patch_6">
    <path d="M 511.321232 107.810816 
Q 484.361184 89.815745 485.764936 59.894279 
" clip-path="url(#p1af1b649ff)" style="fill: none; stroke: #2c7a7b; stroke-width: 2.2; stroke-linecap: round"/>
    <path d="M 482.268528 66.137286 
L 485.764936 59.894279 
L 488.661497 66.437209 
z
" clip-path="url(#p1af1b649ff)" style="fill: #2c7a7b; stroke: #2c7a7b; stroke-width: 2.2; stroke-linecap: round"/>
   </g>
   <g id="patch_7">
    <path d="M 313.237397 57.440214 
Q 313.434292 86.626913 294.73886 105.727401 
" clip-path="url(#p1af1b649ff)" style="fill: none; stroke: #2c7a7b; stroke-width: 2.2; stroke-linecap: round"/>
    <path d="M 301.502447 103.392044 
L 294.73886 105.727401 
L 296.928727 98.915317 
z
" clip-path="url(#p1af1b649ff)" style="fill: #2c7a7b; stroke: #2c7a7b; stroke-width: 2.2; stroke-linecap: round"/>
   </g>
   <g id="patch_8">
    <path d="M 456.808145 162.195765 
Q 446.174403 185.131289 436.48121 206.038175 
" clip-path="url(#p1af1b649ff)" style="fill: none; stroke: #e07a5f; stroke-width: 2; stroke-linecap: round"/>
    <path d="M 442.076368 201.577884 
L 436.48121 206.038175 
L 436.270072 198.885873 
z
" clip-path="url(#p1af1b649ff)" style="fill: #e07a5f; stroke: #e07a5f; stroke-width: 2; stroke-linecap: round"/>
   </g>
   <g id="patch_9">
    <path d="M 510.998408 160.37082 
Q 332.874949 160.015686 266.286271 322.569841 
" clip-path="url(#p1af1b649ff)" style="fill: none; stroke: #d9a531; stroke-width: 2.2; stroke-linecap: round"/>
    <path d="M 271.673487 317.860499 
L 266.286271 322.569841 
L 265.751126 315.434463 
z
" clip-path="url(#p1af1b649ff)" style="fill: #d9a531; stroke: #d9a531; stroke-width: 2.2; stroke-linecap: round"/>
   </g>
   <g id="patch_10">
    <path d="M 263.256262 325.221888 
Q 240.301614 299.971775 218.550279 276.045307 
" clip-path="url(#p1af1b649ff)" style="fill: none; stroke: #d9a531; stroke-width: 1.6; stroke-linecap: round"/>
    <path d="M 220.487576 282.933476 
L 218.550279 276.045307 
L 225.223193 278.62837 
z
" clip-path="url(#p1af1b649ff)" style="fill: #d9a531; stroke: #d9a531; stroke-width: 1.6; stroke-linecap: round"/>
   </g>
   <g id="patch_11">
    <path d="M 262.722327 326.01152 
Q 240.3008 317.790293 219.558786 310.184888 
" clip-path="url(#p1af1b649ff)" style="fill: none; stroke: #d9a531; stroke-width: 1.6; stroke-linecap: round"/>
    <path d="M 224.46598 315.392522 
L 219.558786 310.184888 
L 226.66921 309.383714 
z
" clip-path="url(#p1af1b649ff)" style="fill: #d9a531; stroke: #d9a531; stroke-width: 1.6; stroke-linecap: round"/>
   </g>
   <g id="patch_12">
    <path d="M 262.722327 327.38848 
Q 240.3008 335.609707 219.558786 343.215112 
" clip-path="url(#p1af1b649ff)" style="fill: none; stroke: #d9a531; stroke-width: 1.6; stroke-linecap: round"/>
    <path d="M 226.66921 344.016286 
L 219.558786 343.215112 
L 224.46598 338.007478 
z
" clip-path="url(#p1af1b649ff)" style="fill: #d9a531; stroke: #d9a531; stroke-width: 1.6; stroke-linecap: round"/>
   </g>
   <g id="patch_13">
    <path d="M 263.256262 328.178112 
Q 240.301614 353.428225 218.550279 377.354693 
" clip-path="url(#p1af1b649ff)" style="fill: none; stroke: #d9a531; stroke-width: 1.6; stroke-linecap: round"/>
    <path d="M 225.223193 374.77163 
L 218.550279 377.354693 
L 220.487576 370.466524 
z
" clip-path="url(#p1af1b649ff)" style="fill: #d9a531; stroke: #d9a531; stroke-width: 1.6; stroke-linecap: round"/>
   </g>
   <g id="text_1">
    <!-- XenoDesign1 — mixed-chirality binder design loop on Chai-1 -->
    <g style="fill: #1f2933" transform="translate(68.088281 15.960469) scale(0.15 -0.15)">
     <defs>
      <path id="DejaVuSans-Bold-58" d="M 3188 2381 
L 4806 0 
L 3553 0 
L 2463 1594 
L 1381 0 
L 122 0 
L 1741 2381 
L 184 4666 
L 1441 4666 
L 2463 3163 
L 3481 4666 
L 4744 4666 
L 3188 2381 
z
" transform="scale(0.015625)"/>
      <path id="DejaVuSans-Bold-65" d="M 4031 1759 
L 4031 1441 
L 1416 1441 
Q 1456 1047 1700 850 
Q 1944 653 2381 653 
Q 2734 653 3104 758 
Q 3475 863 3866 1075 
L 3866 213 
Q 3469 63 3072 -14 
Q 2675 -91 2278 -91 
Q 1328 -91 801 392 
Q 275 875 275 1747 
Q 275 2603 792 3093 
Q 1309 3584 2216 3584 
Q 3041 3584 3536 3087 
Q 4031 2591 4031 1759 
z
M 2881 2131 
Q 2881 2450 2695 2645 
Q 2509 2841 2209 2841 
Q 1884 2841 1681 2658 
Q 1478 2475 1428 2131 
L 2881 2131 
z
" transform="scale(0.015625)"/>
      <path id="DejaVuSans-Bold-6e" d="M 4056 2131 
L 4056 0 
L 2931 0 
L 2931 347 
L 2931 1631 
Q 2931 2084 2911 2256 
Q 2891 2428 2841 2509 
Q 2775 2619 2662 2680 
Q 2550 2741 2406 2741 
Q 2056 2741 1856 2470 
Q 1656 2200 1656 1722 
L 1656 0 
L 538 0 
L 538 3500 
L 1656 3500 
L 1656 2988 
Q 1909 3294 2193 3439 
Q 2478 3584 2822 3584 
Q 3428 3584 3742 3212 
Q 4056 2841 4056 2131 
z
" transform="scale(0.015625)"/>
      <path id="DejaVuSans-Bold-6f" d="M 2203 2784 
Q 1831 2784 1636 2517 
Q 1441 2250 1441 1747 
Q 1441 1244 1636 976 
Q 1831 709 2203 709 
Q 2569 709 2762 976 
Q 2956 1244 2956 1747 
Q 2956 2250 2762 2517 
Q 2569 2784 2203 2784 
z
M 2203 3584 
Q 3106 3584 3614 3096 
Q 4122 2609 4122 1747 
Q 4122 884 3614 396 
Q 3106 -91 2203 -91 
Q 1297 -91 786 396 
Q 275 884 275 1747 
Q 275 2609 786 3096 
Q 1297 3584 2203 3584 
z
" transform="scale(0.015625)"/>
      <path id="DejaVuSans-Bold-44" d="M 1791 3756 
L 1791 909 
L 2222 909 
Q 2959 909 3348 1275 
Q 3738 1641 3738 2338 
Q 3738 3031 3350 3393 
Q 2963 3756 2222 3756 
L 1791 3756 
z
M 588 4666 
L 1856 4666 
Q 2919 4666 3439 4514 
Q 3959 4363 4331 4000 
Q 4659 3684 4818 3271 
Q 4978 2859 4978 2338 
Q 4978 1809 4818 1395 
Q 4659 981 4331 666 
Q 3956 303 3431 151 
Q 2906 0 1856 0 
L 588 0 
L 588 4666 
z
" transform="scale(0.015625)"/>
      <path id="DejaVuSans-Bold-73" d="M 3272 3391 
L 3272 2541 
Q 2913 2691 2578 2766 
Q 2244 2841 1947 2841 
Q 1628 2841 1473 2761 
Q 1319 2681 1319 2516 
Q 1319 2381 1436 2309 
Q 1553 2238 1856 2203 
L 2053 2175 
Q 2913 2066 3209 1816 
Q 3506 1566 3506 1031 
Q 3506 472 3093 190 
Q 2681 -91 1863 -91 
Q 1516 -91 1145 -36 
Q 775 19 384 128 
L 384 978 
Q 719 816 1070 734 
Q 1422 653 1784 653 
Q 2113 653 2278 743 
Q 2444 834 2444 1013 
Q 2444 1163 2330 1236 
Q 2216 1309 1875 1350 
L 1678 1375 
Q 931 1469 631 1722 
Q 331 1975 331 2491 
Q 331 3047 712 3315 
Q 1094 3584 1881 3584 
Q 2191 3584 2531 3537 
Q 2872 3491 3272 3391 
z
" transform="scale(0.015625)"/>
      <path id="DejaVuSans-Bold-69" d="M 538 3500 
L 1656 3500 
L 1656 0 
L 538 0 
L 538 3500 
z
M 538 4863 
L 1656 4863 
L 1656 3950 
L 538 3950 
L 538 4863 
z
" transform="scale(0.015625)"/>
      <path id="DejaVuSans-Bold-67" d="M 2919 594 
Q 2688 288 2409 144 
Q 2131 0 1766 0 
Q 1125 0 706 504 
Q 288 1009 288 1791 
Q 288 2575 706 3076 
Q 1125 3578 1766 3578 
Q 2131 3578 2409 3434 
Q 2688 3291 2919 2981 
L 2919 3500 
L 4044 3500 
L 4044 353 
Q 4044 -491 3511 -936 
Q 2978 -1381 1966 -1381 
Q 1638 -1381 1331 -1331 
Q 1025 -1281 716 -1178 
L 716 -306 
Q 1009 -475 1290 -558 
Q 1572 -641 1856 -641 
Q 2406 -641 2662 -400 
Q 2919 -159 2919 353 
L 2919 594 
z
M 2181 2772 
Q 1834 2772 1640 2515 
Q 1447 2259 1447 1791 
Q 1447 1309 1634 1061 
Q 1822 813 2181 813 
Q 2531 813 2725 1069 
Q 2919 1325 2919 1791 
Q 2919 2259 2725 2515 
Q 2531 2772 2181 2772 
z
" transform="scale(0.015625)"/>
      <path id="DejaVuSans-Bold-31" d="M 750 831 
L 1813 831 
L 1813 3847 
L 722 3622 
L 722 4441 
L 1806 4666 
L 2950 4666 
L 2950 831 
L 4013 831 
L 4013 0 
L 750 0 
L 750 831 
z
" transform="scale(0.015625)"/>
      <path id="DejaVuSans-Bold-20" transform="scale(0.015625)"/>
      <path id="DejaVuSans-Bold-2014" d="M 344 2156 
L 6056 2156 
L 6056 1350 
L 344 1350 
L 344 2156 
z
" transform="scale(0.015625)"/>
      <path id="DejaVuSans-Bold-6d" d="M 3781 2919 
Q 3994 3244 4286 3414 
Q 4578 3584 4928 3584 
Q 5531 3584 5847 3212 
Q 6163 2841 6163 2131 
L 6163 0 
L 5038 0 
L 5038 1825 
Q 5041 1866 5042 1909 
Q 5044 1953 5044 2034 
Q 5044 2406 4934 2573 
Q 4825 2741 4581 2741 
Q 4263 2741 4089 2478 
Q 3916 2216 3909 1719 
L 3909 0 
L 2784 0 
L 2784 1825 
Q 2784 2406 2684 2573 
Q 2584 2741 2328 2741 
Q 2006 2741 1831 2477 
Q 1656 2213 1656 1722 
L 1656 0 
L 531 0 
L 531 3500 
L 1656 3500 
L 1656 2988 
Q 1863 3284 2130 3434 
Q 2397 3584 2719 3584 
Q 3081 3584 3359 3409 
Q 3638 3234 3781 2919 
z
" transform="scale(0.015625)"/>
      <path id="DejaVuSans-Bold-78" d="M 1422 1791 
L 159 3500 
L 1344 3500 
L 2059 2463 
L 2784 3500 
L 3969 3500 
L 2706 1797 
L 4031 0 
L 2847 0 
L 2059 1106 
L 1281 0 
L 97 0 
L 1422 1791 
z
" transform="scale(0.015625)"/>
      <path id="DejaVuSans-Bold-64" d="M 2919 2988 
L 2919 4863 
L 4044 4863 
L 4044 0 
L 2919 0 
L 2919 506 
Q 2688 197 2409 53 
Q 2131 -91 1766 -91 
Q 1119 -91 703 423 
Q 288 938 288 1747 
Q 288 2556 703 3070 
Q 1119 3584 1766 3584 
Q 2128 3584 2408 3439 
Q 2688 3294 2919 2988 
z
M 2181 722 
Q 2541 722 2730 984 
Q 2919 1247 2919 1747 
Q 2919 2247 2730 2509 
Q 2541 2772 2181 2772 
Q 1825 2772 1636 2509 
Q 1447 2247 1447 1747 
Q 1447 1247 1636 984 
Q 1825 722 2181 722 
z
" transform="scale(0.015625)"/>
      <path id="DejaVuSans-Bold-2d" d="M 347 2297 
L 2309 2297 
L 2309 1388 
L 347 1388 
L 347 2297 
z
" transform="scale(0.015625)"/>
      <path id="DejaVuSans-Bold-63" d="M 3366 3391 
L 3366 2478 
Q 3138 2634 2908 2709 
Q 2678 2784 2431 2784 
Q 1963 2784 1702 2511 
Q 1441 2238 1441 1747 
Q 1441 1256 1702 982 
Q 1963 709 2431 709 
Q 2694 709 2930 787 
Q 3166 866 3366 1019 
L 3366 103 
Q 3103 6 2833 -42 
Q 2563 -91 2291 -91 
Q 1344 -91 809 395 
Q 275 881 275 1747 
Q 275 2613 809 3098 
Q 1344 3584 2291 3584 
Q 2566 3584 2833 3536 
Q 3100 3488 3366 3391 
z
" transform="scale(0.015625)"/>
      <path id="DejaVuSans-Bold-68" d="M 4056 2131 
L 4056 0 
L 2931 0 
L 2931 347 
L 2931 1625 
Q 2931 2084 2911 2256 
Q 2891 2428 2841 2509 
Q 2775 2619 2662 2680 
Q 2550 2741 2406 2741 
Q 2056 2741 1856 2470 
Q 1656 2200 1656 1722 
L 1656 0 
L 538 0 
L 538 4863 
L 1656 4863 
L 1656 2988 
Q 1909 3294 2193 3439 
Q 2478 3584 2822 3584 
Q 3428 3584 3742 3212 
Q 4056 2841 4056 2131 
z
" transform="scale(0.015625)"/>
      <path id="DejaVuSans-Bold-72" d="M 3138 2547 
Q 2991 2616 2845 2648 
Q 2700 2681 2553 2681 
Q 2122 2681 1889 2404 
Q 1656 2128 1656 1613 
L 1656 0 
L 538 0 
L 538 3500 
L 1656 3500 
L 1656 2925 
Q 1872 3269 2151 3426 
Q 2431 3584 2822 3584 
Q 2878 3584 2943 3579 
Q 3009 3575 3134 3559 
L 3138 2547 
z
" transform="scale(0.015625)"/>
      <path id="DejaVuSans-Bold-61" d="M 2106 1575 
Q 1756 1575 1579 1456 
Q 1403 1338 1403 1106 
Q 1403 894 1545 773 
Q 1688 653 1941 653 
Q 2256 653 2472 879 
Q 2688 1106 2688 1447 
L 2688 1575 
L 2106 1575 
z
M 3816 1997 
L 3816 0 
L 2688 0 
L 2688 519 
Q 2463 200 2181 54 
Q 1900 -91 1497 -91 
Q 953 -91 614 226 
Q 275 544 275 1050 
Q 275 1666 698 1953 
Q 1122 2241 2028 2241 
L 2688 2241 
L 2688 2328 
Q 2688 2594 2478 2717 
Q 2269 2841 1825 2841 
Q 1466 2841 1156 2769 
Q 847 2697 581 2553 
L 581 3406 
Q 941 3494 1303 3539 
Q 1666 3584 2028 3584 
Q 2975 3584 3395 3211 
Q 3816 2838 3816 1997 
z
" transform="scale(0.015625)"/>
      <path id="DejaVuSans-Bold-6c" d="M 538 4863 
L 1656 4863 
L 1656 0 
L 538 0 
L 538 4863 
z
" transform="scale(0.015625)"/>
      <path id="DejaVuSans-Bold-74" d="M 1759 4494 
L 1759 3500 
L 2913 3500 
L 2913 2700 
L 1759 2700 
L 1759 1216 
Q 1759 972 1856 886 
Q 1953 800 2241 800 
L 2816 800 
L 2816 0 
L 1856 0 
Q 1194 0 917 276 
Q 641 553 641 1216 
L 641 2700 
L 84 2700 
L 84 3500 
L 641 3500 
L 641 4494 
L 1759 4494 
z
" transform="scale(0.015625)"/>
      <path id="DejaVuSans-Bold-79" d="M 78 3500 
L 1197 3500 
L 2138 1125 
L 2938 3500 
L 4056 3500 
L 2584 -331 
Q 2363 -916 2067 -1148 
Q 1772 -1381 1288 -1381 
L 641 -1381 
L 641 -647 
L 991 -647 
Q 1275 -647 1404 -556 
Q 1534 -466 1606 -231 
L 1638 -134 
L 78 3500 
z
" transform="scale(0.015625)"/>
      <path id="DejaVuSans-Bold-62" d="M 2400 722 
Q 2759 722 2948 984 
Q 3138 1247 3138 1747 
Q 3138 2247 2948 2509 
Q 2759 2772 2400 2772 
Q 2041 2772 1848 2508 
Q 1656 2244 1656 1747 
Q 1656 1250 1848 986 
Q 2041 722 2400 722 
z
M 1656 2988 
Q 1888 3294 2169 3439 
Q 2450 3584 2816 3584 
Q 3463 3584 3878 3070 
Q 4294 2556 4294 1747 
Q 4294 938 3878 423 
Q 3463 -91 2816 -91 
Q 2450 -91 2169 54 
Q 1888 200 1656 506 
L 1656 0 
L 538 0 
L 538 4863 
L 1656 4863 
L 1656 2988 
z
" transform="scale(0.015625)"/>
      <path id="DejaVuSans-Bold-70" d="M 1656 506 
L 1656 -1331 
L 538 -1331 
L 538 3500 
L 1656 3500 
L 1656 2988 
Q 1888 3294 2169 3439 
Q 2450 3584 2816 3584 
Q 3463 3584 3878 3070 
Q 4294 2556 4294 1747 
Q 4294 938 3878 423 
Q 3463 -91 2816 -91 
Q 2450 -91 2169 54 
Q 1888 200 1656 506 
z
M 2400 2772 
Q 2041 2772 1848 2508 
Q 1656 2244 1656 1747 
Q 1656 1250 1848 986 
Q 2041 722 2400 722 
Q 2759 722 2948 984 
Q 3138 1247 3138 1747 
Q 3138 2247 2948 2509 
Q 2759 2772 2400 2772 
z
" transform="scale(0.015625)"/>
      <path id="DejaVuSans-Bold-43" d="M 4288 256 
Q 3956 84 3597 -3 
Q 3238 -91 2847 -91 
Q 1681 -91 1000 561 
Q 319 1213 319 2328 
Q 319 3447 1000 4098 
Q 1681 4750 2847 4750 
Q 3238 4750 3597 4662 
Q 3956 4575 4288 4403 
L 4288 3438 
Q 3953 3666 3628 3772 
Q 3303 3878 2944 3878 
Q 2300 3878 1931 3465 
Q 1563 3053 1563 2328 
Q 1563 1606 1931 1193 
Q 2300 781 2944 781 
Q 3303 781 3628 887 
Q 3953 994 4288 1222 
L 4288 256 
z
" transform="scale(0.015625)"/>
     </defs>
     <use xlink:href="#DejaVuSans-Bold-58"/>
     <use xlink:href="#DejaVuSans-Bold-65" x="74.474609"/>
     <use xlink:href="#DejaVuSans-Bold-6e" x="142.296875"/>
     <use xlink:href="#DejaVuSans-Bold-6f" x="213.488281"/>
     <use xlink:href="#DejaVuSans-Bold-44" x="282.189453"/>
     <use xlink:href="#DejaVuSans-Bold-65" x="365.197266"/>
     <use xlink:href="#DejaVuSans-Bold-73" x="433.019531"/>
     <use xlink:href="#DejaVuSans-Bold-69" x="492.541016"/>
     <use xlink:href="#DejaVuSans-Bold-67" x="526.818359"/>
     <use xlink:href="#DejaVuSans-Bold-6e" x="598.400391"/>
     <use xlink:href="#DejaVuSans-Bold-31" x="669.591797"/>
     <use xlink:href="#DejaVuSans-Bold-20" x="739.171875"/>
     <use xlink:href="#DejaVuSans-Bold-2014" x="773.986328"/>
     <use xlink:href="#DejaVuSans-Bold-20" x="873.986328"/>
     <use xlink:href="#DejaVuSans-Bold-6d" x="908.800781"/>
     <use xlink:href="#DejaVuSans-Bold-69" x="1013"/>
     <use xlink:href="#DejaVuSans-Bold-78" x="1047.277344"/>
     <use xlink:href="#DejaVuSans-Bold-65" x="1111.779297"/>
     <use xlink:href="#DejaVuSans-Bold-64" x="1179.601562"/>
     <use xlink:href="#DejaVuSans-Bold-2d" x="1251.183594"/>
     <use xlink:href="#DejaVuSans-Bold-63" x="1292.6875"/>
     <use xlink:href="#DejaVuSans-Bold-68" x="1351.964844"/>
     <use xlink:href="#DejaVuSans-Bold-69" x="1423.15625"/>
     <use xlink:href="#DejaVuSans-Bold-72" x="1457.433594"/>
     <use xlink:href="#DejaVuSans-Bold-61" x="1506.75"/>
     <use xlink:href="#DejaVuSans-Bold-6c" x="1574.230469"/>
     <use xlink:href="#DejaVuSans-Bold-69" x="1608.507812"/>
     <use xlink:href="#DejaVuSans-Bold-74" x="1642.785156"/>
     <use xlink:href="#DejaVuSans-Bold-79" x="1690.587891"/>
     <use xlink:href="#DejaVuSans-Bold-20" x="1755.773438"/>
     <use xlink:href="#DejaVuSans-Bold-62" x="1790.587891"/>
     <use xlink:href="#DejaVuSans-Bold-69" x="1862.169922"/>
     <use xlink:href="#DejaVuSans-Bold-6e" x="1896.447266"/>
     <use xlink:href="#DejaVuSans-Bold-64" x="1967.638672"/>
     <use xlink:href="#DejaVuSans-Bold-65" x="2039.220703"/>
     <use xlink:href="#DejaVuSans-Bold-72" x="2107.042969"/>
     <use xlink:href="#DejaVuSans-Bold-20" x="2156.359375"/>
     <use xlink:href="#DejaVuSans-Bold-64" x="2191.173828"/>
     <use xlink:href="#DejaVuSans-Bold-65" x="2262.755859"/>
     <use xlink:href="#DejaVuSans-Bold-73" x="2330.578125"/>
     <use xlink:href="#DejaVuSans-Bold-69" x="2390.099609"/>
     <use xlink:href="#DejaVuSans-Bold-67" x="2424.376953"/>
     <use xlink:href="#DejaVuSans-Bold-6e" x="2495.958984"/>
     <use xlink:href="#DejaVuSans-Bold-20" x="2567.150391"/>
     <use xlink:href="#DejaVuSans-Bold-6c" x="2601.964844"/>
     <use xlink:href="#DejaVuSans-Bold-6f" x="2636.242188"/>
     <use xlink:href="#DejaVuSans-Bold-6f" x="2704.943359"/>
     <use xlink:href="#DejaVuSans-Bold-70" x="2773.644531"/>
     <use xlink:href="#DejaVuSans-Bold-20" x="2845.226562"/>
     <use xlink:href="#DejaVuSans-Bold-6f" x="2880.041016"/>
     <use xlink:href="#DejaVuSans-Bold-6e" x="2948.742188"/>
     <use xlink:href="#DejaVuSans-Bold-20" x="3019.933594"/>
     <use xlink:href="#DejaVuSans-Bold-43" x="3054.748047"/>
     <use xlink:href="#DejaVuSans-Bold-68" x="3128.136719"/>
     <use xlink:href="#DejaVuSans-Bold-61" x="3199.328125"/>
     <use xlink:href="#DejaVuSans-Bold-69" x="3266.808594"/>
     <use xlink:href="#DejaVuSans-Bold-2d" x="3301.085938"/>
     <use xlink:href="#DejaVuSans-Bold-31" x="3342.589844"/>
    </g>
   </g>
   <g id="patch_14">
    <path d="M 34.29 160.38 
L 106.11 160.38 
Q 114.75 160.38 114.75 154.044 
L 114.75 115.236 
Q 114.75 108.9 106.11 108.9 
L 34.29 108.9 
Q 25.65 108.9 25.65 115.236 
L 25.65 154.044 
Q 25.65 160.38 34.29 160.38 
z
" clip-path="url(#p1af1b649ff)" style="fill: #334e68; stroke: #0f1b24; stroke-width: 1.6; stroke-linejoin: miter"/>
   </g>
   <g id="patch_15">
    <path d="M 144.99 160.38 
L 216.81 160.38 
Q 225.45 160.38 225.45 154.044 
L 225.45 115.236 
Q 225.45 108.9 216.81 108.9 
L 144.99 108.9 
Q 136.35 108.9 136.35 115.236 
L 136.35 154.044 
Q 136.35 160.38 144.99 160.38 
z
" clip-path="url(#p1af1b649ff)" style="fill: #5b7a96; stroke: #0f1b24; stroke-width: 1.6; stroke-linejoin: miter"/>
   </g>
   <g id="patch_16">
    <path d="M 255.69 160.38 
L 327.51 160.38 
Q 336.15 160.38 336.15 154.044 
L 336.15 115.236 
Q 336.15 108.9 327.51 108.9 
L 255.69 108.9 
Q 247.05 108.9 247.05 115.236 
L 247.05 154.044 
Q 247.05 160.38 255.69 160.38 
z
" clip-path="url(#p1af1b649ff)" style="fill: #334e68; stroke: #0f1b24; stroke-width: 1.6; stroke-linejoin: miter"/>
   </g>
   <g id="patch_17">
    <path d="M 366.39 160.38 
L 438.21 160.38 
Q 446.85 160.38 446.85 154.044 
L 446.85 115.236 
Q 446.85 108.9 438.21 108.9 
L 366.39 108.9 
Q 357.75 108.9 357.75 115.236 
L 357.75 154.044 
Q 357.75 160.38 366.39 160.38 
z
" clip-path="url(#p1af1b649ff)" style="fill: #334e68; stroke: #0f1b24; stroke-width: 1.6; stroke-linejoin: miter"/>
   </g>
   <g id="patch_18">
    <path d="M 485.19 160.38 
L 540.81 160.38 
Q 549.45 160.38 549.45 154.044 
L 549.45 115.236 
Q 549.45 108.9 540.81 108.9 
L 485.19 108.9 
Q 476.55 108.9 476.55 115.236 
L 476.55 154.044 
Q 476.55 160.38 485.19 160.38 
z
" clip-path="url(#p1af1b649ff)" style="fill: #3a6b6b; stroke: #0f1b24; stroke-width: 1.6; stroke-linejoin: miter"/>
   </g>
   <g id="patch_19">
    <path d="M 321.84 72.27 
L 477.36 72.27 
Q 486 72.27 486 65.934 
L 486 44.946 
Q 486 38.61 477.36 38.61 
L 321.84 38.61 
Q 313.2 38.61 313.2 44.946 
L 313.2 65.934 
Q 313.2 72.27 321.84 72.27 
z
" clip-path="url(#p1af1b649ff)" style="fill: #2c7a7b; stroke: #0f1b24; stroke-width: 1.6; stroke-linejoin: miter"/>
   </g>
   <g id="text_2">
    <!-- iterate -->
    <g style="fill: #2c7a7b" transform="translate(385.505273 82.337469) scale(0.085 -0.085)">
     <defs>
      <path id="DejaVuSans-Oblique-69" d="M 1172 4863 
L 1747 4863 
L 1606 4134 
L 1031 4134 
L 1172 4863 
z
M 909 3500 
L 1484 3500 
L 800 0 
L 225 0 
L 909 3500 
z
" transform="scale(0.015625)"/>
      <path id="DejaVuSans-Oblique-74" d="M 2706 3500 
L 2619 3053 
L 1472 3053 
L 1100 1153 
Q 1081 1047 1072 975 
Q 1063 903 1063 863 
Q 1063 663 1183 572 
Q 1303 481 1569 481 
L 2150 481 
L 2053 0 
L 1503 0 
Q 991 0 739 200 
Q 488 400 488 806 
Q 488 878 497 964 
Q 506 1050 525 1153 
L 897 3053 
L 409 3053 
L 500 3500 
L 978 3500 
L 1172 4494 
L 1747 4494 
L 1556 3500 
L 2706 3500 
z
" transform="scale(0.015625)"/>
      <path id="DejaVuSans-Oblique-65" d="M 3078 2063 
Q 3088 2113 3092 2166 
Q 3097 2219 3097 2272 
Q 3097 2653 2873 2875 
Q 2650 3097 2266 3097 
Q 1838 3097 1509 2826 
Q 1181 2556 1013 2059 
L 3078 2063 
z
M 3578 1613 
L 903 1613 
Q 884 1494 878 1425 
Q 872 1356 872 1306 
Q 872 872 1139 634 
Q 1406 397 1894 397 
Q 2269 397 2603 481 
Q 2938 566 3225 728 
L 3116 159 
Q 2806 34 2476 -28 
Q 2147 -91 1806 -91 
Q 1078 -91 686 257 
Q 294 606 294 1247 
Q 294 1794 489 2264 
Q 684 2734 1063 3103 
Q 1306 3334 1642 3459 
Q 1978 3584 2356 3584 
Q 2950 3584 3301 3228 
Q 3653 2872 3653 2272 
Q 3653 2128 3634 1964 
Q 3616 1800 3578 1613 
z
" transform="scale(0.015625)"/>
      <path id="DejaVuSans-Oblique-72" d="M 2853 2969 
Q 2766 3016 2653 3041 
Q 2541 3066 2413 3066 
Q 1953 3066 1609 2717 
Q 1266 2369 1153 1784 
L 800 0 
L 225 0 
L 909 3500 
L 1484 3500 
L 1375 2956 
Q 1603 3259 1920 3421 
Q 2238 3584 2597 3584 
Q 2691 3584 2781 3573 
Q 2872 3563 2963 3538 
L 2853 2969 
z
" transform="scale(0.015625)"/>
      <path id="DejaVuSans-Oblique-61" d="M 3438 1997 
L 3047 0 
L 2472 0 
L 2578 531 
Q 2325 219 2001 64 
Q 1678 -91 1281 -91 
Q 834 -91 548 182 
Q 263 456 263 884 
Q 263 1497 752 1853 
Q 1241 2209 2100 2209 
L 2900 2209 
L 2931 2363 
Q 2938 2388 2941 2417 
Q 2944 2447 2944 2509 
Q 2944 2788 2717 2942 
Q 2491 3097 2081 3097 
Q 1800 3097 1504 3025 
Q 1209 2953 897 2809 
L 997 3341 
Q 1322 3463 1633 3523 
Q 1944 3584 2234 3584 
Q 2853 3584 3176 3315 
Q 3500 3047 3500 2534 
Q 3500 2431 3484 2292 
Q 3469 2153 3438 1997 
z
M 2816 1759 
L 2241 1759 
Q 1534 1759 1195 1570 
Q 856 1381 856 984 
Q 856 709 1029 553 
Q 1203 397 1509 397 
Q 1978 397 2328 733 
Q 2678 1069 2791 1631 
L 2816 1759 
z
" transform="scale(0.015625)"/>
     </defs>
     <use xlink:href="#DejaVuSans-Oblique-69"/>
     <use xlink:href="#DejaVuSans-Oblique-74" x="27.783203"/>
     <use xlink:href="#DejaVuSans-Oblique-65" x="66.992188"/>
     <use xlink:href="#DejaVuSans-Oblique-72" x="128.515625"/>
     <use xlink:href="#DejaVuSans-Oblique-61" x="169.628906"/>
     <use xlink:href="#DejaVuSans-Oblique-74" x="230.908203"/>
     <use xlink:href="#DejaVuSans-Oblique-65" x="270.117188"/>
    </g>
   </g>
   <g id="patch_20">
    <path d="M 272.7 215.82 
L 322.65 245.52 
L 272.7 275.22 
L 222.75 245.52 
z
" clip-path="url(#p1af1b649ff)" style="fill: #e07a5f; stroke: #0f1b24; stroke-width: 1.4; stroke-linejoin: miter"/>
   </g>
   <g id="patch_21">
    <path d="M 380.7 215.82 
L 430.65 245.52 
L 380.7 275.22 
L 330.75 245.52 
z
" clip-path="url(#p1af1b649ff)" style="fill: #e07a5f; stroke: #0f1b24; stroke-width: 1.4; stroke-linejoin: miter"/>
   </g>
   <g id="patch_22">
    <path d="M 488.7 215.82 
L 538.65 245.52 
L 488.7 275.22 
L 438.75 245.52 
z
" clip-path="url(#p1af1b649ff)" style="fill: #e07a5f; stroke: #0f1b24; stroke-width: 1.4; stroke-linejoin: miter"/>
   </g>
   <g id="patch_23">
    <path d="M 596.7 215.82 
L 646.65 245.52 
L 596.7 275.22 
L 546.75 245.52 
z
" clip-path="url(#p1af1b649ff)" style="fill: #e07a5f; stroke: #0f1b24; stroke-width: 1.4; stroke-linejoin: miter"/>
   </g>
   <g id="text_3">
    <!-- class-specific gates -->
    <g style="fill: #e07a5f" transform="translate(392.924156 200.373063) scale(0.086 -0.086)">
     <defs>
      <path id="DejaVuSans-Oblique-63" d="M 3431 3366 
L 3316 2797 
Q 3109 2947 2876 3022 
Q 2644 3097 2394 3097 
Q 2119 3097 1870 3000 
Q 1622 2903 1453 2725 
Q 1184 2453 1037 2087 
Q 891 1722 891 1331 
Q 891 859 1127 628 
Q 1363 397 1844 397 
Q 2081 397 2348 469 
Q 2616 541 2906 684 
L 2797 116 
Q 2547 13 2283 -39 
Q 2019 -91 1741 -91 
Q 1044 -91 669 257 
Q 294 606 294 1253 
Q 294 1797 489 2255 
Q 684 2713 1069 3078 
Q 1331 3328 1684 3456 
Q 2038 3584 2456 3584 
Q 2700 3584 2940 3529 
Q 3181 3475 3431 3366 
z
" transform="scale(0.015625)"/>
      <path id="DejaVuSans-Oblique-6c" d="M 1172 4863 
L 1747 4863 
L 800 0 
L 225 0 
L 1172 4863 
z
" transform="scale(0.015625)"/>
      <path id="DejaVuSans-Oblique-73" d="M 3200 3397 
L 3091 2853 
Q 2863 2978 2609 3040 
Q 2356 3103 2088 3103 
Q 1634 3103 1373 2948 
Q 1113 2794 1113 2528 
Q 1113 2219 1719 2053 
Q 1766 2041 1788 2034 
L 1972 1978 
Q 2547 1819 2739 1644 
Q 2931 1469 2931 1166 
Q 2931 609 2489 259 
Q 2047 -91 1331 -91 
Q 1053 -91 747 -37 
Q 441 16 72 128 
L 184 722 
Q 500 559 806 475 
Q 1113 391 1394 391 
Q 1816 391 2080 572 
Q 2344 753 2344 1031 
Q 2344 1331 1650 1516 
L 1591 1531 
L 1394 1581 
Q 956 1697 753 1886 
Q 550 2075 550 2369 
Q 550 2928 970 3256 
Q 1391 3584 2113 3584 
Q 2397 3584 2667 3537 
Q 2938 3491 3200 3397 
z
" transform="scale(0.015625)"/>
      <path id="DejaVuSans-Oblique-2d" d="M 391 2009 
L 2075 2009 
L 1978 1497 
L 288 1497 
L 391 2009 
z
" transform="scale(0.015625)"/>
      <path id="DejaVuSans-Oblique-70" d="M 3175 2156 
Q 3175 2616 2975 2859 
Q 2775 3103 2400 3103 
Q 2144 3103 1911 2972 
Q 1678 2841 1497 2591 
Q 1319 2344 1212 1994 
Q 1106 1644 1106 1300 
Q 1106 863 1306 627 
Q 1506 391 1875 391 
Q 2147 391 2380 519 
Q 2613 647 2778 891 
Q 2956 1147 3065 1494 
Q 3175 1841 3175 2156 
z
M 1394 2969 
Q 1625 3272 1939 3428 
Q 2253 3584 2638 3584 
Q 3175 3584 3472 3232 
Q 3769 2881 3769 2247 
Q 3769 1728 3584 1258 
Q 3400 788 3053 416 
Q 2822 169 2531 39 
Q 2241 -91 1919 -91 
Q 1547 -91 1294 64 
Q 1041 219 916 525 
L 556 -1331 
L -19 -1331 
L 922 3500 
L 1497 3500 
L 1394 2969 
z
" transform="scale(0.015625)"/>
      <path id="DejaVuSans-Oblique-66" d="M 3059 4863 
L 2969 4384 
L 2419 4384 
Q 2106 4384 1964 4261 
Q 1822 4138 1753 3809 
L 1691 3500 
L 2638 3500 
L 2553 3053 
L 1606 3053 
L 1013 0 
L 434 0 
L 1031 3053 
L 481 3053 
L 563 3500 
L 1113 3500 
L 1159 3744 
Q 1278 4363 1576 4613 
Q 1875 4863 2516 4863 
L 3059 4863 
z
" transform="scale(0.015625)"/>
      <path id="DejaVuSans-Oblique-20" transform="scale(0.015625)"/>
      <path id="DejaVuSans-Oblique-67" d="M 3816 3500 
L 3219 434 
Q 3047 -456 2561 -893 
Q 2075 -1331 1253 -1331 
Q 950 -1331 690 -1286 
Q 431 -1241 206 -1147 
L 313 -588 
Q 525 -725 762 -790 
Q 1000 -856 1269 -856 
Q 1816 -856 2167 -557 
Q 2519 -259 2631 300 
L 2681 563 
Q 2441 288 2122 144 
Q 1803 0 1434 0 
Q 903 0 598 351 
Q 294 703 294 1319 
Q 294 1803 478 2267 
Q 663 2731 997 3091 
Q 1219 3328 1514 3456 
Q 1809 3584 2131 3584 
Q 2484 3584 2746 3420 
Q 3009 3256 3138 2956 
L 3238 3500 
L 3816 3500 
z
M 2950 2216 
Q 2950 2641 2750 2872 
Q 2550 3103 2181 3103 
Q 1953 3103 1747 3012 
Q 1541 2922 1394 2759 
Q 1156 2491 1023 2127 
Q 891 1763 891 1375 
Q 891 944 1092 712 
Q 1294 481 1672 481 
Q 2219 481 2584 976 
Q 2950 1472 2950 2216 
z
" transform="scale(0.015625)"/>
     </defs>
     <use xlink:href="#DejaVuSans-Oblique-63"/>
     <use xlink:href="#DejaVuSans-Oblique-6c" x="54.980469"/>
     <use xlink:href="#DejaVuSans-Oblique-61" x="82.763672"/>
     <use xlink:href="#DejaVuSans-Oblique-73" x="144.042969"/>
     <use xlink:href="#DejaVuSans-Oblique-73" x="196.142578"/>
     <use xlink:href="#DejaVuSans-Oblique-2d" x="248.242188"/>
     <use xlink:href="#DejaVuSans-Oblique-73" x="284.326172"/>
     <use xlink:href="#DejaVuSans-Oblique-70" x="336.425781"/>
     <use xlink:href="#DejaVuSans-Oblique-65" x="399.902344"/>
     <use xlink:href="#DejaVuSans-Oblique-63" x="461.425781"/>
     <use xlink:href="#DejaVuSans-Oblique-69" x="516.40625"/>
     <use xlink:href="#DejaVuSans-Oblique-66" x="544.189453"/>
     <use xlink:href="#DejaVuSans-Oblique-69" x="579.394531"/>
     <use xlink:href="#DejaVuSans-Oblique-63" x="607.177734"/>
     <use xlink:href="#DejaVuSans-Oblique-20" x="662.158203"/>
     <use xlink:href="#DejaVuSans-Oblique-67" x="693.945312"/>
     <use xlink:href="#DejaVuSans-Oblique-61" x="757.421875"/>
     <use xlink:href="#DejaVuSans-Oblique-74" x="818.701172"/>
     <use xlink:href="#DejaVuSans-Oblique-65" x="857.910156"/>
     <use xlink:href="#DejaVuSans-Oblique-73" x="919.433594"/>
    </g>
   </g>
   <g id="patch_24">
    <path d="M 46.44 289.08 
L 201.96 289.08 
Q 216 289.08 216 278.784 
L 216 267.696 
Q 216 257.4 201.96 257.4 
L 46.44 257.4 
Q 32.4 257.4 32.4 267.696 
L 32.4 278.784 
Q 32.4 289.08 46.44 289.08 
z
" clip-path="url(#p1af1b649ff)" style="fill: #d9a531; stroke: #0f1b24; stroke-width: 1.3; stroke-linejoin: miter"/>
   </g>
   <g id="patch_25">
    <path d="M 46.44 324.72 
L 201.96 324.72 
Q 216 324.72 216 314.424 
L 216 303.336 
Q 216 293.04 201.96 293.04 
L 46.44 293.04 
Q 32.4 293.04 32.4 303.336 
L 32.4 314.424 
Q 32.4 324.72 46.44 324.72 
z
" clip-path="url(#p1af1b649ff)" style="fill: #d9a531; stroke: #0f1b24; stroke-width: 1.3; stroke-linejoin: miter"/>
   </g>
   <g id="patch_26">
    <path d="M 46.44 360.36 
L 201.96 360.36 
Q 216 360.36 216 350.064 
L 216 338.976 
Q 216 328.68 201.96 328.68 
L 46.44 328.68 
Q 32.4 328.68 32.4 338.976 
L 32.4 350.064 
Q 32.4 360.36 46.44 360.36 
z
" clip-path="url(#p1af1b649ff)" style="fill: #d9a531; stroke: #0f1b24; stroke-width: 1.3; stroke-linejoin: miter"/>
   </g>
   <g id="patch_27">
    <path d="M 46.44 396 
L 201.96 396 
Q 216 396 216 385.704 
L 216 374.616 
Q 216 364.32 201.96 364.32 
L 46.44 364.32 
Q 32.4 364.32 32.4 374.616 
L 32.4 385.704 
Q 32.4 396 46.44 396 
z
" clip-path="url(#p1af1b649ff)" style="fill: #d9a531; stroke: #0f1b24; stroke-width: 1.3; stroke-linejoin: miter"/>
   </g>
   <g id="text_4">
    <!-- branch per -->
    <g style="fill: #d9a531" transform="translate(257.888344 258.974794) scale(0.084 -0.084)">
     <defs>
      <path id="DejaVuSans-Oblique-62" d="M 3169 2138 
Q 3169 2591 2961 2847 
Q 2753 3103 2388 3103 
Q 2122 3103 1889 2973 
Q 1656 2844 1484 2597 
Q 1303 2338 1198 1995 
Q 1094 1653 1094 1313 
Q 1094 881 1298 636 
Q 1503 391 1863 391 
Q 2134 391 2365 517 
Q 2597 644 2772 891 
Q 2950 1147 3059 1487 
Q 3169 1828 3169 2138 
z
M 1381 2969 
Q 1594 3256 1914 3420 
Q 2234 3584 2584 3584 
Q 3122 3584 3439 3221 
Q 3756 2859 3756 2241 
Q 3756 1734 3570 1259 
Q 3384 784 3041 416 
Q 2816 172 2522 40 
Q 2228 -91 1906 -91 
Q 1566 -91 1316 65 
Q 1066 222 909 531 
L 806 0 
L 231 0 
L 1178 4863 
L 1753 4863 
L 1381 2969 
z
" transform="scale(0.015625)"/>
      <path id="DejaVuSans-Oblique-6e" d="M 3566 2113 
L 3156 0 
L 2578 0 
L 2988 2091 
Q 3016 2238 3031 2350 
Q 3047 2463 3047 2528 
Q 3047 2791 2881 2937 
Q 2716 3084 2419 3084 
Q 1956 3084 1622 2776 
Q 1288 2469 1184 1941 
L 800 0 
L 225 0 
L 903 3500 
L 1478 3500 
L 1363 2950 
Q 1603 3253 1940 3418 
Q 2278 3584 2650 3584 
Q 3113 3584 3367 3334 
Q 3622 3084 3622 2631 
Q 3622 2519 3608 2391 
Q 3594 2263 3566 2113 
z
" transform="scale(0.015625)"/>
      <path id="DejaVuSans-Oblique-68" d="M 3566 2113 
L 3156 0 
L 2578 0 
L 2988 2091 
Q 3016 2238 3031 2350 
Q 3047 2463 3047 2528 
Q 3047 2791 2881 2937 
Q 2716 3084 2419 3084 
Q 1956 3084 1617 2771 
Q 1278 2459 1178 1941 
L 800 0 
L 225 0 
L 1172 4863 
L 1747 4863 
L 1375 2950 
Q 1594 3244 1934 3414 
Q 2275 3584 2650 3584 
Q 3113 3584 3367 3334 
Q 3622 3084 3622 2631 
Q 3622 2519 3608 2391 
Q 3594 2263 3566 2113 
z
" transform="scale(0.015625)"/>
     </defs>
     <use xlink:href="#DejaVuSans-Oblique-62"/>
     <use xlink:href="#DejaVuSans-Oblique-72" x="63.476562"/>
     <use xlink:href="#DejaVuSans-Oblique-61" x="104.589844"/>
     <use xlink:href="#DejaVuSans-Oblique-6e" x="165.869141"/>
     <use xlink:href="#DejaVuSans-Oblique-63" x="229.248047"/>
     <use xlink:href="#DejaVuSans-Oblique-68" x="284.228516"/>
     <use xlink:href="#DejaVuSans-Oblique-20" x="347.607422"/>
     <use xlink:href="#DejaVuSans-Oblique-70" x="379.394531"/>
     <use xlink:href="#DejaVuSans-Oblique-65" x="442.871094"/>
     <use xlink:href="#DejaVuSans-Oblique-72" x="504.394531"/>
    </g>
    <!-- binder class -->
    <g style="fill: #d9a531" transform="translate(255.567188 268.380956) scale(0.084 -0.084)">
     <defs>
      <path id="DejaVuSans-Oblique-64" d="M 2675 525 
Q 2444 222 2128 65 
Q 1813 -91 1428 -91 
Q 903 -91 598 267 
Q 294 625 294 1247 
Q 294 1766 478 2236 
Q 663 2706 1013 3078 
Q 1244 3325 1534 3454 
Q 1825 3584 2144 3584 
Q 2481 3584 2739 3421 
Q 2997 3259 3138 2956 
L 3513 4863 
L 4091 4863 
L 3144 0 
L 2566 0 
L 2675 525 
z
M 891 1350 
Q 891 897 1095 644 
Q 1300 391 1663 391 
Q 1931 391 2161 520 
Q 2391 650 2566 903 
Q 2750 1166 2856 1509 
Q 2963 1853 2963 2188 
Q 2963 2622 2758 2865 
Q 2553 3109 2194 3109 
Q 1922 3109 1687 2981 
Q 1453 2853 1288 2613 
Q 1106 2353 998 2009 
Q 891 1666 891 1350 
z
" transform="scale(0.015625)"/>
     </defs>
     <use xlink:href="#DejaVuSans-Oblique-62"/>
     <use xlink:href="#DejaVuSans-Oblique-69" x="63.476562"/>
     <use xlink:href="#DejaVuSans-Oblique-6e" x="91.259766"/>
     <use xlink:href="#DejaVuSans-Oblique-64" x="154.638672"/>
     <use xlink:href="#DejaVuSans-Oblique-65" x="218.115234"/>
     <use xlink:href="#DejaVuSans-Oblique-72" x="279.638672"/>
     <use xlink:href="#DejaVuSans-Oblique-20" x="320.751953"/>
     <use xlink:href="#DejaVuSans-Oblique-63" x="352.539062"/>
     <use xlink:href="#DejaVuSans-Oblique-6c" x="407.519531"/>
     <use xlink:href="#DejaVuSans-Oblique-61" x="435.302734"/>
     <use xlink:href="#DejaVuSans-Oblique-73" x="496.582031"/>
     <use xlink:href="#DejaVuSans-Oblique-73" x="548.681641"/>
    </g>
   </g>
   <g id="text_5">
    <!-- SEED -->
    <g style="fill: #ffffff" transform="translate(53.429766 127.517281) scale(0.115 -0.115)">
     <defs>
      <path id="DejaVuSans-Bold-53" d="M 3834 4519 
L 3834 3531 
Q 3450 3703 3084 3790 
Q 2719 3878 2394 3878 
Q 1963 3878 1756 3759 
Q 1550 3641 1550 3391 
Q 1550 3203 1689 3098 
Q 1828 2994 2194 2919 
L 2706 2816 
Q 3484 2659 3812 2340 
Q 4141 2022 4141 1434 
Q 4141 663 3683 286 
Q 3225 -91 2284 -91 
Q 1841 -91 1394 -6 
Q 947 78 500 244 
L 500 1259 
Q 947 1022 1364 901 
Q 1781 781 2169 781 
Q 2563 781 2772 912 
Q 2981 1044 2981 1288 
Q 2981 1506 2839 1625 
Q 2697 1744 2272 1838 
L 1806 1941 
Q 1106 2091 782 2419 
Q 459 2747 459 3303 
Q 459 4000 909 4375 
Q 1359 4750 2203 4750 
Q 2588 4750 2994 4692 
Q 3400 4634 3834 4519 
z
" transform="scale(0.015625)"/>
      <path id="DejaVuSans-Bold-45" d="M 588 4666 
L 3834 4666 
L 3834 3756 
L 1791 3756 
L 1791 2888 
L 3713 2888 
L 3713 1978 
L 1791 1978 
L 1791 909 
L 3903 909 
L 3903 0 
L 588 0 
L 588 4666 
z
" transform="scale(0.015625)"/>
     </defs>
     <use xlink:href="#DejaVuSans-Bold-53"/>
     <use xlink:href="#DejaVuSans-Bold-45" x="72.021484"/>
     <use xlink:href="#DejaVuSans-Bold-45" x="140.332031"/>
     <use xlink:href="#DejaVuSans-Bold-44" x="208.642578"/>
    </g>
   </g>
   <g id="text_6">
    <!-- unconditional PepMLM / -->
    <g style="fill: #ffffff" transform="translate(25.155156 139.552388) scale(0.076 -0.076)">
     <defs>
      <path id="DejaVuSans-75" d="M 544 1381 
L 544 3500 
L 1119 3500 
L 1119 1403 
Q 1119 906 1312 657 
Q 1506 409 1894 409 
Q 2359 409 2629 706 
Q 2900 1003 2900 1516 
L 2900 3500 
L 3475 3500 
L 3475 0 
L 2900 0 
L 2900 538 
Q 2691 219 2414 64 
Q 2138 -91 1772 -91 
Q 1169 -91 856 284 
Q 544 659 544 1381 
z
M 1991 3584 
L 1991 3584 
z
" transform="scale(0.015625)"/>
      <path id="DejaVuSans-6e" d="M 3513 2113 
L 3513 0 
L 2938 0 
L 2938 2094 
Q 2938 2591 2744 2837 
Q 2550 3084 2163 3084 
Q 1697 3084 1428 2787 
Q 1159 2491 1159 1978 
L 1159 0 
L 581 0 
L 581 3500 
L 1159 3500 
L 1159 2956 
Q 1366 3272 1645 3428 
Q 1925 3584 2291 3584 
Q 2894 3584 3203 3211 
Q 3513 2838 3513 2113 
z
" transform="scale(0.015625)"/>
      <path id="DejaVuSans-63" d="M 3122 3366 
L 3122 2828 
Q 2878 2963 2633 3030 
Q 2388 3097 2138 3097 
Q 1578 3097 1268 2742 
Q 959 2388 959 1747 
Q 959 1106 1268 751 
Q 1578 397 2138 397 
Q 2388 397 2633 464 
Q 2878 531 3122 666 
L 3122 134 
Q 2881 22 2623 -34 
Q 2366 -91 2075 -91 
Q 1284 -91 818 406 
Q 353 903 353 1747 
Q 353 2603 823 3093 
Q 1294 3584 2113 3584 
Q 2378 3584 2631 3529 
Q 2884 3475 3122 3366 
z
" transform="scale(0.015625)"/>
      <path id="DejaVuSans-6f" d="M 1959 3097 
Q 1497 3097 1228 2736 
Q 959 2375 959 1747 
Q 959 1119 1226 758 
Q 1494 397 1959 397 
Q 2419 397 2687 759 
Q 2956 1122 2956 1747 
Q 2956 2369 2687 2733 
Q 2419 3097 1959 3097 
z
M 1959 3584 
Q 2709 3584 3137 3096 
Q 3566 2609 3566 1747 
Q 3566 888 3137 398 
Q 2709 -91 1959 -91 
Q 1206 -91 779 398 
Q 353 888 353 1747 
Q 353 2609 779 3096 
Q 1206 3584 1959 3584 
z
" transform="scale(0.015625)"/>
      <path id="DejaVuSans-64" d="M 2906 2969 
L 2906 4863 
L 3481 4863 
L 3481 0 
L 2906 0 
L 2906 525 
Q 2725 213 2448 61 
Q 2172 -91 1784 -91 
Q 1150 -91 751 415 
Q 353 922 353 1747 
Q 353 2572 751 3078 
Q 1150 3584 1784 3584 
Q 2172 3584 2448 3432 
Q 2725 3281 2906 2969 
z
M 947 1747 
Q 947 1113 1208 752 
Q 1469 391 1925 391 
Q 2381 391 2643 752 
Q 2906 1113 2906 1747 
Q 2906 2381 2643 2742 
Q 2381 3103 1925 3103 
Q 1469 3103 1208 2742 
Q 947 2381 947 1747 
z
" transform="scale(0.015625)"/>
      <path id="DejaVuSans-69" d="M 603 3500 
L 1178 3500 
L 1178 0 
L 603 0 
L 603 3500 
z
M 603 4863 
L 1178 4863 
L 1178 4134 
L 603 4134 
L 603 4863 
z
" transform="scale(0.015625)"/>
      <path id="DejaVuSans-74" d="M 1172 4494 
L 1172 3500 
L 2356 3500 
L 2356 3053 
L 1172 3053 
L 1172 1153 
Q 1172 725 1289 603 
Q 1406 481 1766 481 
L 2356 481 
L 2356 0 
L 1766 0 
Q 1100 0 847 248 
Q 594 497 594 1153 
L 594 3053 
L 172 3053 
L 172 3500 
L 594 3500 
L 594 4494 
L 1172 4494 
z
" transform="scale(0.015625)"/>
      <path id="DejaVuSans-61" d="M 2194 1759 
Q 1497 1759 1228 1600 
Q 959 1441 959 1056 
Q 959 750 1161 570 
Q 1363 391 1709 391 
Q 2188 391 2477 730 
Q 2766 1069 2766 1631 
L 2766 1759 
L 2194 1759 
z
M 3341 1997 
L 3341 0 
L 2766 0 
L 2766 531 
Q 2569 213 2275 61 
Q 1981 -91 1556 -91 
Q 1019 -91 701 211 
Q 384 513 384 1019 
Q 384 1609 779 1909 
Q 1175 2209 1959 2209 
L 2766 2209 
L 2766 2266 
Q 2766 2663 2505 2880 
Q 2244 3097 1772 3097 
Q 1472 3097 1187 3025 
Q 903 2953 641 2809 
L 641 3341 
Q 956 3463 1253 3523 
Q 1550 3584 1831 3584 
Q 2591 3584 2966 3190 
Q 3341 2797 3341 1997 
z
" transform="scale(0.015625)"/>
      <path id="DejaVuSans-6c" d="M 603 4863 
L 1178 4863 
L 1178 0 
L 603 0 
L 603 4863 
z
" transform="scale(0.015625)"/>
      <path id="DejaVuSans-20" transform="scale(0.015625)"/>
      <path id="DejaVuSans-50" d="M 1259 4147 
L 1259 2394 
L 2053 2394 
Q 2494 2394 2734 2622 
Q 2975 2850 2975 3272 
Q 2975 3691 2734 3919 
Q 2494 4147 2053 4147 
L 1259 4147 
z
M 628 4666 
L 2053 4666 
Q 2838 4666 3239 4311 
Q 3641 3956 3641 3272 
Q 3641 2581 3239 2228 
Q 2838 1875 2053 1875 
L 1259 1875 
L 1259 0 
L 628 0 
L 628 4666 
z
" transform="scale(0.015625)"/>
      <path id="DejaVuSans-65" d="M 3597 1894 
L 3597 1613 
L 953 1613 
Q 991 1019 1311 708 
Q 1631 397 2203 397 
Q 2534 397 2845 478 
Q 3156 559 3463 722 
L 3463 178 
Q 3153 47 2828 -22 
Q 2503 -91 2169 -91 
Q 1331 -91 842 396 
Q 353 884 353 1716 
Q 353 2575 817 3079 
Q 1281 3584 2069 3584 
Q 2775 3584 3186 3129 
Q 3597 2675 3597 1894 
z
M 3022 2063 
Q 3016 2534 2758 2815 
Q 2500 3097 2075 3097 
Q 1594 3097 1305 2825 
Q 1016 2553 972 2059 
L 3022 2063 
z
" transform="scale(0.015625)"/>
      <path id="DejaVuSans-70" d="M 1159 525 
L 1159 -1331 
L 581 -1331 
L 581 3500 
L 1159 3500 
L 1159 2969 
Q 1341 3281 1617 3432 
Q 1894 3584 2278 3584 
Q 2916 3584 3314 3078 
Q 3713 2572 3713 1747 
Q 3713 922 3314 415 
Q 2916 -91 2278 -91 
Q 1894 -91 1617 61 
Q 1341 213 1159 525 
z
M 3116 1747 
Q 3116 2381 2855 2742 
Q 2594 3103 2138 3103 
Q 1681 3103 1420 2742 
Q 1159 2381 1159 1747 
Q 1159 1113 1420 752 
Q 1681 391 2138 391 
Q 2594 391 2855 752 
Q 3116 1113 3116 1747 
z
" transform="scale(0.015625)"/>
      <path id="DejaVuSans-4d" d="M 628 4666 
L 1569 4666 
L 2759 1491 
L 3956 4666 
L 4897 4666 
L 4897 0 
L 4281 0 
L 4281 4097 
L 3078 897 
L 2444 897 
L 1241 4097 
L 1241 0 
L 628 0 
L 628 4666 
z
" transform="scale(0.015625)"/>
      <path id="DejaVuSans-4c" d="M 628 4666 
L 1259 4666 
L 1259 531 
L 3531 531 
L 3531 0 
L 628 0 
L 628 4666 
z
" transform="scale(0.015625)"/>
      <path id="DejaVuSans-2f" d="M 1625 4666 
L 2156 4666 
L 531 -594 
L 0 -594 
L 1625 4666 
z
" transform="scale(0.015625)"/>
     </defs>
     <use xlink:href="#DejaVuSans-75"/>
     <use xlink:href="#DejaVuSans-6e" x="63.378906"/>
     <use xlink:href="#DejaVuSans-63" x="126.757812"/>
     <use xlink:href="#DejaVuSans-6f" x="181.738281"/>
     <use xlink:href="#DejaVuSans-6e" x="242.919922"/>
     <use xlink:href="#DejaVuSans-64" x="306.298828"/>
     <use xlink:href="#DejaVuSans-69" x="369.775391"/>
     <use xlink:href="#DejaVuSans-74" x="397.558594"/>
     <use xlink:href="#DejaVuSans-69" x="436.767578"/>
     <use xlink:href="#DejaVuSans-6f" x="464.550781"/>
     <use xlink:href="#DejaVuSans-6e" x="525.732422"/>
     <use xlink:href="#DejaVuSans-61" x="589.111328"/>
     <use xlink:href="#DejaVuSans-6c" x="650.390625"/>
     <use xlink:href="#DejaVuSans-20" x="678.173828"/>
     <use xlink:href="#DejaVuSans-50" x="709.960938"/>
     <use xlink:href="#DejaVuSans-65" x="766.638672"/>
     <use xlink:href="#DejaVuSans-70" x="828.162109"/>
     <use xlink:href="#DejaVuSans-4d" x="891.638672"/>
     <use xlink:href="#DejaVuSans-4c" x="977.917969"/>
     <use xlink:href="#DejaVuSans-4d" x="1033.630859"/>
     <use xlink:href="#DejaVuSans-20" x="1119.910156"/>
     <use xlink:href="#DejaVuSans-2f" x="1151.697266"/>
    </g>
    <!-- declared scaffold -->
    <g style="fill: #ffffff" transform="translate(37.674375 148.062725) scale(0.076 -0.076)">
     <defs>
      <path id="DejaVuSans-72" d="M 2631 2963 
Q 2534 3019 2420 3045 
Q 2306 3072 2169 3072 
Q 1681 3072 1420 2755 
Q 1159 2438 1159 1844 
L 1159 0 
L 581 0 
L 581 3500 
L 1159 3500 
L 1159 2956 
Q 1341 3275 1631 3429 
Q 1922 3584 2338 3584 
Q 2397 3584 2469 3576 
Q 2541 3569 2628 3553 
L 2631 2963 
z
" transform="scale(0.015625)"/>
      <path id="DejaVuSans-73" d="M 2834 3397 
L 2834 2853 
Q 2591 2978 2328 3040 
Q 2066 3103 1784 3103 
Q 1356 3103 1142 2972 
Q 928 2841 928 2578 
Q 928 2378 1081 2264 
Q 1234 2150 1697 2047 
L 1894 2003 
Q 2506 1872 2764 1633 
Q 3022 1394 3022 966 
Q 3022 478 2636 193 
Q 2250 -91 1575 -91 
Q 1294 -91 989 -36 
Q 684 19 347 128 
L 347 722 
Q 666 556 975 473 
Q 1284 391 1588 391 
Q 1994 391 2212 530 
Q 2431 669 2431 922 
Q 2431 1156 2273 1281 
Q 2116 1406 1581 1522 
L 1381 1569 
Q 847 1681 609 1914 
Q 372 2147 372 2553 
Q 372 3047 722 3315 
Q 1072 3584 1716 3584 
Q 2034 3584 2315 3537 
Q 2597 3491 2834 3397 
z
" transform="scale(0.015625)"/>
      <path id="DejaVuSans-66" d="M 2375 4863 
L 2375 4384 
L 1825 4384 
Q 1516 4384 1395 4259 
Q 1275 4134 1275 3809 
L 1275 3500 
L 2222 3500 
L 2222 3053 
L 1275 3053 
L 1275 0 
L 697 0 
L 697 3053 
L 147 3053 
L 147 3500 
L 697 3500 
L 697 3744 
Q 697 4328 969 4595 
Q 1241 4863 1831 4863 
L 2375 4863 
z
" transform="scale(0.015625)"/>
     </defs>
     <use xlink:href="#DejaVuSans-64"/>
     <use xlink:href="#DejaVuSans-65" x="63.476562"/>
     <use xlink:href="#DejaVuSans-63" x="125"/>
     <use xlink:href="#DejaVuSans-6c" x="179.980469"/>
     <use xlink:href="#DejaVuSans-61" x="207.763672"/>
     <use xlink:href="#DejaVuSans-72" x="269.042969"/>
     <use xlink:href="#DejaVuSans-65" x="307.90625"/>
     <use xlink:href="#DejaVuSans-64" x="369.429688"/>
     <use xlink:href="#DejaVuSans-20" x="432.90625"/>
     <use xlink:href="#DejaVuSans-73" x="464.693359"/>
     <use xlink:href="#DejaVuSans-63" x="516.792969"/>
     <use xlink:href="#DejaVuSans-61" x="571.773438"/>
     <use xlink:href="#DejaVuSans-66" x="633.052734"/>
     <use xlink:href="#DejaVuSans-66" x="668.257812"/>
     <use xlink:href="#DejaVuSans-6f" x="703.462891"/>
     <use xlink:href="#DejaVuSans-6c" x="764.644531"/>
     <use xlink:href="#DejaVuSans-64" x="792.427734"/>
    </g>
    <!-- (free length 6-50) -->
    <g style="fill: #ffffff" transform="translate(36.591969 156.573062) scale(0.076 -0.076)">
     <defs>
      <path id="DejaVuSans-28" d="M 1984 4856 
Q 1566 4138 1362 3434 
Q 1159 2731 1159 2009 
Q 1159 1288 1364 580 
Q 1569 -128 1984 -844 
L 1484 -844 
Q 1016 -109 783 600 
Q 550 1309 550 2009 
Q 550 2706 781 3412 
Q 1013 4119 1484 4856 
L 1984 4856 
z
" transform="scale(0.015625)"/>
      <path id="DejaVuSans-67" d="M 2906 1791 
Q 2906 2416 2648 2759 
Q 2391 3103 1925 3103 
Q 1463 3103 1205 2759 
Q 947 2416 947 1791 
Q 947 1169 1205 825 
Q 1463 481 1925 481 
Q 2391 481 2648 825 
Q 2906 1169 2906 1791 
z
M 3481 434 
Q 3481 -459 3084 -895 
Q 2688 -1331 1869 -1331 
Q 1566 -1331 1297 -1286 
Q 1028 -1241 775 -1147 
L 775 -588 
Q 1028 -725 1275 -790 
Q 1522 -856 1778 -856 
Q 2344 -856 2625 -561 
Q 2906 -266 2906 331 
L 2906 616 
Q 2728 306 2450 153 
Q 2172 0 1784 0 
Q 1141 0 747 490 
Q 353 981 353 1791 
Q 353 2603 747 3093 
Q 1141 3584 1784 3584 
Q 2172 3584 2450 3431 
Q 2728 3278 2906 2969 
L 2906 3500 
L 3481 3500 
L 3481 434 
z
" transform="scale(0.015625)"/>
      <path id="DejaVuSans-68" d="M 3513 2113 
L 3513 0 
L 2938 0 
L 2938 2094 
Q 2938 2591 2744 2837 
Q 2550 3084 2163 3084 
Q 1697 3084 1428 2787 
Q 1159 2491 1159 1978 
L 1159 0 
L 581 0 
L 581 4863 
L 1159 4863 
L 1159 2956 
Q 1366 3272 1645 3428 
Q 1925 3584 2291 3584 
Q 2894 3584 3203 3211 
Q 3513 2838 3513 2113 
z
" transform="scale(0.015625)"/>
      <path id="DejaVuSans-36" d="M 2113 2584 
Q 1688 2584 1439 2293 
Q 1191 2003 1191 1497 
Q 1191 994 1439 701 
Q 1688 409 2113 409 
Q 2538 409 2786 701 
Q 3034 994 3034 1497 
Q 3034 2003 2786 2293 
Q 2538 2584 2113 2584 
z
M 3366 4563 
L 3366 3988 
Q 3128 4100 2886 4159 
Q 2644 4219 2406 4219 
Q 1781 4219 1451 3797 
Q 1122 3375 1075 2522 
Q 1259 2794 1537 2939 
Q 1816 3084 2150 3084 
Q 2853 3084 3261 2657 
Q 3669 2231 3669 1497 
Q 3669 778 3244 343 
Q 2819 -91 2113 -91 
Q 1303 -91 875 529 
Q 447 1150 447 2328 
Q 447 3434 972 4092 
Q 1497 4750 2381 4750 
Q 2619 4750 2861 4703 
Q 3103 4656 3366 4563 
z
" transform="scale(0.015625)"/>
      <path id="DejaVuSans-2d" d="M 313 2009 
L 1997 2009 
L 1997 1497 
L 313 1497 
L 313 2009 
z
" transform="scale(0.015625)"/>
      <path id="DejaVuSans-35" d="M 691 4666 
L 3169 4666 
L 3169 4134 
L 1269 4134 
L 1269 2991 
Q 1406 3038 1543 3061 
Q 1681 3084 1819 3084 
Q 2600 3084 3056 2656 
Q 3513 2228 3513 1497 
Q 3513 744 3044 326 
Q 2575 -91 1722 -91 
Q 1428 -91 1123 -41 
Q 819 9 494 109 
L 494 744 
Q 775 591 1075 516 
Q 1375 441 1709 441 
Q 2250 441 2565 725 
Q 2881 1009 2881 1497 
Q 2881 1984 2565 2268 
Q 2250 2553 1709 2553 
Q 1456 2553 1204 2497 
Q 953 2441 691 2322 
L 691 4666 
z
" transform="scale(0.015625)"/>
      <path id="DejaVuSans-30" d="M 2034 4250 
Q 1547 4250 1301 3770 
Q 1056 3291 1056 2328 
Q 1056 1369 1301 889 
Q 1547 409 2034 409 
Q 2525 409 2770 889 
Q 3016 1369 3016 2328 
Q 3016 3291 2770 3770 
Q 2525 4250 2034 4250 
z
M 2034 4750 
Q 2819 4750 3233 4129 
Q 3647 3509 3647 2328 
Q 3647 1150 3233 529 
Q 2819 -91 2034 -91 
Q 1250 -91 836 529 
Q 422 1150 422 2328 
Q 422 3509 836 4129 
Q 1250 4750 2034 4750 
z
" transform="scale(0.015625)"/>
      <path id="DejaVuSans-29" d="M 513 4856 
L 1013 4856 
Q 1481 4119 1714 3412 
Q 1947 2706 1947 2009 
Q 1947 1309 1714 600 
Q 1481 -109 1013 -844 
L 513 -844 
Q 928 -128 1133 580 
Q 1338 1288 1338 2009 
Q 1338 2731 1133 3434 
Q 928 4138 513 4856 
z
" transform="scale(0.015625)"/>
     </defs>
     <use xlink:href="#DejaVuSans-28"/>
     <use xlink:href="#DejaVuSans-66" x="39.013672"/>
     <use xlink:href="#DejaVuSans-72" x="74.21875"/>
     <use xlink:href="#DejaVuSans-65" x="113.082031"/>
     <use xlink:href="#DejaVuSans-65" x="174.605469"/>
     <use xlink:href="#DejaVuSans-20" x="236.128906"/>
     <use xlink:href="#DejaVuSans-6c" x="267.916016"/>
     <use xlink:href="#DejaVuSans-65" x="295.699219"/>
     <use xlink:href="#DejaVuSans-6e" x="357.222656"/>
     <use xlink:href="#DejaVuSans-67" x="420.601562"/>
     <use xlink:href="#DejaVuSans-74" x="484.078125"/>
     <use xlink:href="#DejaVuSans-68" x="523.287109"/>
     <use xlink:href="#DejaVuSans-20" x="586.666016"/>
     <use xlink:href="#DejaVuSans-36" x="618.453125"/>
     <use xlink:href="#DejaVuSans-2d" x="682.076172"/>
     <use xlink:href="#DejaVuSans-35" x="718.160156"/>
     <use xlink:href="#DejaVuSans-30" x="781.783203"/>
     <use xlink:href="#DejaVuSans-29" x="845.40625"/>
    </g>
   </g>
   <g id="text_7">
    <!-- RESTRAINTS (opt) -->
    <g style="fill: #ffffff" transform="translate(137.239547 126.717063) scale(0.086 -0.086)">
     <defs>
      <path id="DejaVuSans-Bold-52" d="M 2297 2597 
Q 2675 2597 2839 2737 
Q 3003 2878 3003 3200 
Q 3003 3519 2839 3656 
Q 2675 3794 2297 3794 
L 1791 3794 
L 1791 2597 
L 2297 2597 
z
M 1791 1766 
L 1791 0 
L 588 0 
L 588 4666 
L 2425 4666 
Q 3347 4666 3776 4356 
Q 4206 4047 4206 3378 
Q 4206 2916 3982 2619 
Q 3759 2322 3309 2181 
Q 3556 2125 3751 1926 
Q 3947 1728 4147 1325 
L 4800 0 
L 3519 0 
L 2950 1159 
Q 2778 1509 2601 1637 
Q 2425 1766 2131 1766 
L 1791 1766 
z
" transform="scale(0.015625)"/>
      <path id="DejaVuSans-Bold-54" d="M 31 4666 
L 4331 4666 
L 4331 3756 
L 2784 3756 
L 2784 0 
L 1581 0 
L 1581 3756 
L 31 3756 
L 31 4666 
z
" transform="scale(0.015625)"/>
      <path id="DejaVuSans-Bold-41" d="M 3419 850 
L 1538 850 
L 1241 0 
L 31 0 
L 1759 4666 
L 3194 4666 
L 4922 0 
L 3713 0 
L 3419 850 
z
M 1838 1716 
L 3116 1716 
L 2478 3572 
L 1838 1716 
z
" transform="scale(0.015625)"/>
      <path id="DejaVuSans-Bold-49" d="M 588 4666 
L 1791 4666 
L 1791 0 
L 588 0 
L 588 4666 
z
" transform="scale(0.015625)"/>
      <path id="DejaVuSans-Bold-4e" d="M 588 4666 
L 1931 4666 
L 3628 1466 
L 3628 4666 
L 4769 4666 
L 4769 0 
L 3425 0 
L 1728 3200 
L 1728 0 
L 588 0 
L 588 4666 
z
" transform="scale(0.015625)"/>
      <path id="DejaVuSans-Bold-28" d="M 2413 -844 
L 1484 -844 
Q 1006 -72 778 623 
Q 550 1319 550 2003 
Q 550 2688 779 3389 
Q 1009 4091 1484 4856 
L 2413 4856 
Q 2013 4116 1813 3408 
Q 1613 2700 1613 2009 
Q 1613 1319 1811 609 
Q 2009 -100 2413 -844 
z
" transform="scale(0.015625)"/>
      <path id="DejaVuSans-Bold-29" d="M 513 -844 
Q 913 -100 1113 609 
Q 1313 1319 1313 2009 
Q 1313 2700 1113 3408 
Q 913 4116 513 4856 
L 1441 4856 
Q 1916 4091 2145 3389 
Q 2375 2688 2375 2003 
Q 2375 1319 2147 623 
Q 1919 -72 1441 -844 
L 513 -844 
z
" transform="scale(0.015625)"/>
     </defs>
     <use xlink:href="#DejaVuSans-Bold-52"/>
     <use xlink:href="#DejaVuSans-Bold-45" x="77.001953"/>
     <use xlink:href="#DejaVuSans-Bold-53" x="145.3125"/>
     <use xlink:href="#DejaVuSans-Bold-54" x="217.333984"/>
     <use xlink:href="#DejaVuSans-Bold-52" x="285.546875"/>
     <use xlink:href="#DejaVuSans-Bold-41" x="362.548828"/>
     <use xlink:href="#DejaVuSans-Bold-49" x="439.941406"/>
     <use xlink:href="#DejaVuSans-Bold-4e" x="477.148438"/>
     <use xlink:href="#DejaVuSans-Bold-54" x="560.839844"/>
     <use xlink:href="#DejaVuSans-Bold-53" x="629.052734"/>
     <use xlink:href="#DejaVuSans-Bold-20" x="701.074219"/>
     <use xlink:href="#DejaVuSans-Bold-28" x="735.888672"/>
     <use xlink:href="#DejaVuSans-Bold-6f" x="781.591797"/>
     <use xlink:href="#DejaVuSans-Bold-70" x="850.292969"/>
     <use xlink:href="#DejaVuSans-Bold-74" x="921.875"/>
     <use xlink:href="#DejaVuSans-Bold-29" x="969.677734"/>
    </g>
   </g>
   <g id="text_8">
    <!-- coordinators, -->
    <g style="fill: #ffffff" transform="translate(155.895406 143.807556) scale(0.076 -0.076)">
     <defs>
      <path id="DejaVuSans-2c" d="M 750 794 
L 1409 794 
L 1409 256 
L 897 -744 
L 494 -744 
L 750 256 
L 750 794 
z
" transform="scale(0.015625)"/>
     </defs>
     <use xlink:href="#DejaVuSans-63"/>
     <use xlink:href="#DejaVuSans-6f" x="54.980469"/>
     <use xlink:href="#DejaVuSans-6f" x="116.162109"/>
     <use xlink:href="#DejaVuSans-72" x="177.34375"/>
     <use xlink:href="#DejaVuSans-64" x="216.707031"/>
     <use xlink:href="#DejaVuSans-69" x="280.183594"/>
     <use xlink:href="#DejaVuSans-6e" x="307.966797"/>
     <use xlink:href="#DejaVuSans-61" x="371.345703"/>
     <use xlink:href="#DejaVuSans-74" x="432.625"/>
     <use xlink:href="#DejaVuSans-6f" x="471.833984"/>
     <use xlink:href="#DejaVuSans-72" x="533.015625"/>
     <use xlink:href="#DejaVuSans-73" x="574.128906"/>
     <use xlink:href="#DejaVuSans-2c" x="626.228516"/>
    </g>
    <!-- cyclization, contacts -->
    <g style="fill: #ffffff" transform="translate(142.143563 152.317894) scale(0.076 -0.076)">
     <defs>
      <path id="DejaVuSans-79" d="M 2059 -325 
Q 1816 -950 1584 -1140 
Q 1353 -1331 966 -1331 
L 506 -1331 
L 506 -850 
L 844 -850 
Q 1081 -850 1212 -737 
Q 1344 -625 1503 -206 
L 1606 56 
L 191 3500 
L 800 3500 
L 1894 763 
L 2988 3500 
L 3597 3500 
L 2059 -325 
z
" transform="scale(0.015625)"/>
      <path id="DejaVuSans-7a" d="M 353 3500 
L 3084 3500 
L 3084 2975 
L 922 459 
L 3084 459 
L 3084 0 
L 275 0 
L 275 525 
L 2438 3041 
L 353 3041 
L 353 3500 
z
" transform="scale(0.015625)"/>
     </defs>
     <use xlink:href="#DejaVuSans-63"/>
     <use xlink:href="#DejaVuSans-79" x="54.980469"/>
     <use xlink:href="#DejaVuSans-63" x="114.160156"/>
     <use xlink:href="#DejaVuSans-6c" x="169.140625"/>
     <use xlink:href="#DejaVuSans-69" x="196.923828"/>
     <use xlink:href="#DejaVuSans-7a" x="224.707031"/>
     <use xlink:href="#DejaVuSans-61" x="277.197266"/>
     <use xlink:href="#DejaVuSans-74" x="338.476562"/>
     <use xlink:href="#DejaVuSans-69" x="377.685547"/>
     <use xlink:href="#DejaVuSans-6f" x="405.46875"/>
     <use xlink:href="#DejaVuSans-6e" x="466.650391"/>
     <use xlink:href="#DejaVuSans-2c" x="530.029297"/>
     <use xlink:href="#DejaVuSans-20" x="561.816406"/>
     <use xlink:href="#DejaVuSans-63" x="593.603516"/>
     <use xlink:href="#DejaVuSans-6f" x="648.583984"/>
     <use xlink:href="#DejaVuSans-6e" x="709.765625"/>
     <use xlink:href="#DejaVuSans-74" x="773.144531"/>
     <use xlink:href="#DejaVuSans-61" x="812.353516"/>
     <use xlink:href="#DejaVuSans-63" x="873.632812"/>
     <use xlink:href="#DejaVuSans-74" x="928.613281"/>
     <use xlink:href="#DejaVuSans-73" x="967.822266"/>
    </g>
   </g>
   <g id="text_9">
    <!-- CHAI-1 PREDICT -->
    <g style="fill: #ffffff" transform="translate(248.496 137.289) scale(0.096 -0.096)">
     <defs>
      <path id="DejaVuSans-Bold-48" d="M 588 4666 
L 1791 4666 
L 1791 2888 
L 3566 2888 
L 3566 4666 
L 4769 4666 
L 4769 0 
L 3566 0 
L 3566 1978 
L 1791 1978 
L 1791 0 
L 588 0 
L 588 4666 
z
" transform="scale(0.015625)"/>
      <path id="DejaVuSans-Bold-50" d="M 588 4666 
L 2584 4666 
Q 3475 4666 3951 4270 
Q 4428 3875 4428 3144 
Q 4428 2409 3951 2014 
Q 3475 1619 2584 1619 
L 1791 1619 
L 1791 0 
L 588 0 
L 588 4666 
z
M 1791 3794 
L 1791 2491 
L 2456 2491 
Q 2806 2491 2997 2661 
Q 3188 2831 3188 3144 
Q 3188 3456 2997 3625 
Q 2806 3794 2456 3794 
L 1791 3794 
z
" transform="scale(0.015625)"/>
     </defs>
     <use xlink:href="#DejaVuSans-Bold-43"/>
     <use xlink:href="#DejaVuSans-Bold-48" x="73.388672"/>
     <use xlink:href="#DejaVuSans-Bold-41" x="157.080078"/>
     <use xlink:href="#DejaVuSans-Bold-49" x="234.472656"/>
     <use xlink:href="#DejaVuSans-Bold-2d" x="271.679688"/>
     <use xlink:href="#DejaVuSans-Bold-31" x="313.183594"/>
     <use xlink:href="#DejaVuSans-Bold-20" x="382.763672"/>
     <use xlink:href="#DejaVuSans-Bold-50" x="417.578125"/>
     <use xlink:href="#DejaVuSans-Bold-52" x="490.869141"/>
     <use xlink:href="#DejaVuSans-Bold-45" x="567.871094"/>
     <use xlink:href="#DejaVuSans-Bold-44" x="636.181641"/>
     <use xlink:href="#DejaVuSans-Bold-49" x="719.189453"/>
     <use xlink:href="#DejaVuSans-Bold-43" x="756.396484"/>
     <use xlink:href="#DejaVuSans-Bold-54" x="829.785156"/>
    </g>
   </g>
   <g id="text_10">
    <!-- SCORE -->
    <g style="fill: #ffffff" transform="translate(380.695273 127.517281) scale(0.115 -0.115)">
     <defs>
      <path id="DejaVuSans-Bold-4f" d="M 2719 3878 
Q 2169 3878 1866 3472 
Q 1563 3066 1563 2328 
Q 1563 1594 1866 1187 
Q 2169 781 2719 781 
Q 3272 781 3575 1187 
Q 3878 1594 3878 2328 
Q 3878 3066 3575 3472 
Q 3272 3878 2719 3878 
z
M 2719 4750 
Q 3844 4750 4481 4106 
Q 5119 3463 5119 2328 
Q 5119 1197 4481 553 
Q 3844 -91 2719 -91 
Q 1597 -91 958 553 
Q 319 1197 319 2328 
Q 319 3463 958 4106 
Q 1597 4750 2719 4750 
z
" transform="scale(0.015625)"/>
     </defs>
     <use xlink:href="#DejaVuSans-Bold-53"/>
     <use xlink:href="#DejaVuSans-Bold-43" x="72.021484"/>
     <use xlink:href="#DejaVuSans-Bold-4f" x="145.410156"/>
     <use xlink:href="#DejaVuSans-Bold-52" x="230.419922"/>
     <use xlink:href="#DejaVuSans-Bold-45" x="307.421875"/>
    </g>
   </g>
   <g id="text_11">
    <!-- ipTM / pTM / pLDDT -->
    <g style="fill: #ffffff" transform="translate(365.1265 148.062725) scale(0.076 -0.076)">
     <defs>
      <path id="DejaVuSans-54" d="M -19 4666 
L 3928 4666 
L 3928 4134 
L 2272 4134 
L 2272 0 
L 1638 0 
L 1638 4134 
L -19 4134 
L -19 4666 
z
" transform="scale(0.015625)"/>
      <path id="DejaVuSans-44" d="M 1259 4147 
L 1259 519 
L 2022 519 
Q 2988 519 3436 956 
Q 3884 1394 3884 2338 
Q 3884 3275 3436 3711 
Q 2988 4147 2022 4147 
L 1259 4147 
z
M 628 4666 
L 1925 4666 
Q 3281 4666 3915 4102 
Q 4550 3538 4550 2338 
Q 4550 1131 3912 565 
Q 3275 0 1925 0 
L 628 0 
L 628 4666 
z
" transform="scale(0.015625)"/>
     </defs>
     <use xlink:href="#DejaVuSans-69"/>
     <use xlink:href="#DejaVuSans-70" x="27.783203"/>
     <use xlink:href="#DejaVuSans-54" x="91.259766"/>
     <use xlink:href="#DejaVuSans-4d" x="152.34375"/>
     <use xlink:href="#DejaVuSans-20" x="238.623047"/>
     <use xlink:href="#DejaVuSans-2f" x="270.410156"/>
     <use xlink:href="#DejaVuSans-20" x="304.101562"/>
     <use xlink:href="#DejaVuSans-70" x="335.888672"/>
     <use xlink:href="#DejaVuSans-54" x="399.365234"/>
     <use xlink:href="#DejaVuSans-4d" x="460.449219"/>
     <use xlink:href="#DejaVuSans-20" x="546.728516"/>
     <use xlink:href="#DejaVuSans-2f" x="578.515625"/>
     <use xlink:href="#DejaVuSans-20" x="612.207031"/>
     <use xlink:href="#DejaVuSans-70" x="643.994141"/>
     <use xlink:href="#DejaVuSans-4c" x="707.470703"/>
     <use xlink:href="#DejaVuSans-44" x="763.183594"/>
     <use xlink:href="#DejaVuSans-44" x="840.185547"/>
     <use xlink:href="#DejaVuSans-54" x="917.1875"/>
    </g>
   </g>
   <g id="text_12">
    <!-- SELECT -->
    <g style="fill: #ffffff" transform="translate(489.196797 137.813281) scale(0.115 -0.115)">
     <defs>
      <path id="DejaVuSans-Bold-4c" d="M 588 4666 
L 1791 4666 
L 1791 909 
L 3903 909 
L 3903 0 
L 588 0 
L 588 4666 
z
" transform="scale(0.015625)"/>
     </defs>
     <use xlink:href="#DejaVuSans-Bold-53"/>
     <use xlink:href="#DejaVuSans-Bold-45" x="72.021484"/>
     <use xlink:href="#DejaVuSans-Bold-4c" x="140.332031"/>
     <use xlink:href="#DejaVuSans-Bold-45" x="204.052734"/>
     <use xlink:href="#DejaVuSans-Bold-43" x="272.363281"/>
     <use xlink:href="#DejaVuSans-Bold-54" x="345.751953"/>
    </g>
   </g>
   <g id="text_13">
    <!-- sequence update -->
    <g style="fill: #ffffff" transform="translate(357.9545 52.964409) scale(0.086 -0.086)">
     <defs>
      <path id="DejaVuSans-Bold-71" d="M 2181 2772 
Q 1825 2772 1636 2509 
Q 1447 2247 1447 1747 
Q 1447 1247 1636 984 
Q 1825 722 2181 722 
Q 2541 722 2730 984 
Q 2919 1247 2919 1747 
Q 2919 2247 2730 2509 
Q 2541 2772 2181 2772 
z
M 2919 506 
Q 2688 197 2409 53 
Q 2131 -91 1766 -91 
Q 1119 -91 703 423 
Q 288 938 288 1747 
Q 288 2556 703 3067 
Q 1119 3578 1766 3578 
Q 2131 3578 2409 3434 
Q 2688 3291 2919 2981 
L 2919 3500 
L 4044 3500 
L 4044 -1331 
L 2919 -1331 
L 2919 506 
z
" transform="scale(0.015625)"/>
      <path id="DejaVuSans-Bold-75" d="M 500 1363 
L 500 3500 
L 1625 3500 
L 1625 3150 
Q 1625 2866 1622 2436 
Q 1619 2006 1619 1863 
Q 1619 1441 1641 1255 
Q 1663 1069 1716 984 
Q 1784 875 1895 815 
Q 2006 756 2150 756 
Q 2500 756 2700 1025 
Q 2900 1294 2900 1772 
L 2900 3500 
L 4019 3500 
L 4019 0 
L 2900 0 
L 2900 506 
Q 2647 200 2364 54 
Q 2081 -91 1741 -91 
Q 1134 -91 817 281 
Q 500 653 500 1363 
z
" transform="scale(0.015625)"/>
     </defs>
     <use xlink:href="#DejaVuSans-Bold-73"/>
     <use xlink:href="#DejaVuSans-Bold-65" x="59.521484"/>
     <use xlink:href="#DejaVuSans-Bold-71" x="127.34375"/>
     <use xlink:href="#DejaVuSans-Bold-75" x="198.925781"/>
     <use xlink:href="#DejaVuSans-Bold-65" x="270.117188"/>
     <use xlink:href="#DejaVuSans-Bold-6e" x="337.939453"/>
     <use xlink:href="#DejaVuSans-Bold-63" x="409.130859"/>
     <use xlink:href="#DejaVuSans-Bold-65" x="468.408203"/>
     <use xlink:href="#DejaVuSans-Bold-20" x="536.230469"/>
     <use xlink:href="#DejaVuSans-Bold-75" x="571.044922"/>
     <use xlink:href="#DejaVuSans-Bold-70" x="642.236328"/>
     <use xlink:href="#DejaVuSans-Bold-64" x="713.818359"/>
     <use xlink:href="#DejaVuSans-Bold-61" x="785.400391"/>
     <use xlink:href="#DejaVuSans-Bold-74" x="852.880859"/>
     <use xlink:href="#DejaVuSans-Bold-65" x="900.683594"/>
    </g>
    <!-- (LigandMPNN / CARBonAra) -->
    <g style="fill: #ffffff" transform="translate(332.706781 62.594528) scale(0.086 -0.086)">
     <defs>
      <path id="DejaVuSans-Bold-4d" d="M 588 4666 
L 2119 4666 
L 3181 2169 
L 4250 4666 
L 5778 4666 
L 5778 0 
L 4641 0 
L 4641 3413 
L 3566 897 
L 2803 897 
L 1728 3413 
L 1728 0 
L 588 0 
L 588 4666 
z
" transform="scale(0.015625)"/>
      <path id="DejaVuSans-Bold-2f" d="M 1644 4666 
L 2338 4666 
L 691 -594 
L 0 -594 
L 1644 4666 
z
" transform="scale(0.015625)"/>
      <path id="DejaVuSans-Bold-42" d="M 2456 2859 
Q 2741 2859 2887 2984 
Q 3034 3109 3034 3353 
Q 3034 3594 2887 3720 
Q 2741 3847 2456 3847 
L 1791 3847 
L 1791 2859 
L 2456 2859 
z
M 2497 819 
Q 2859 819 3042 972 
Q 3225 1125 3225 1434 
Q 3225 1738 3044 1889 
Q 2863 2041 2497 2041 
L 1791 2041 
L 1791 819 
L 2497 819 
z
M 3616 2497 
Q 4003 2384 4215 2081 
Q 4428 1778 4428 1338 
Q 4428 663 3972 331 
Q 3516 0 2584 0 
L 588 0 
L 588 4666 
L 2394 4666 
Q 3366 4666 3802 4372 
Q 4238 4078 4238 3431 
Q 4238 3091 4078 2852 
Q 3919 2613 3616 2497 
z
" transform="scale(0.015625)"/>
     </defs>
     <use xlink:href="#DejaVuSans-Bold-28"/>
     <use xlink:href="#DejaVuSans-Bold-4c" x="45.703125"/>
     <use xlink:href="#DejaVuSans-Bold-69" x="109.423828"/>
     <use xlink:href="#DejaVuSans-Bold-67" x="143.701172"/>
     <use xlink:href="#DejaVuSans-Bold-61" x="215.283203"/>
     <use xlink:href="#DejaVuSans-Bold-6e" x="282.763672"/>
     <use xlink:href="#DejaVuSans-Bold-64" x="353.955078"/>
     <use xlink:href="#DejaVuSans-Bold-4d" x="425.537109"/>
     <use xlink:href="#DejaVuSans-Bold-50" x="525.048828"/>
     <use xlink:href="#DejaVuSans-Bold-4e" x="598.339844"/>
     <use xlink:href="#DejaVuSans-Bold-4e" x="682.03125"/>
     <use xlink:href="#DejaVuSans-Bold-20" x="765.722656"/>
     <use xlink:href="#DejaVuSans-Bold-2f" x="800.537109"/>
     <use xlink:href="#DejaVuSans-Bold-20" x="837.060547"/>
     <use xlink:href="#DejaVuSans-Bold-43" x="871.875"/>
     <use xlink:href="#DejaVuSans-Bold-41" x="945.263672"/>
     <use xlink:href="#DejaVuSans-Bold-52" x="1022.65625"/>
     <use xlink:href="#DejaVuSans-Bold-42" x="1099.658203"/>
     <use xlink:href="#DejaVuSans-Bold-6f" x="1175.878906"/>
     <use xlink:href="#DejaVuSans-Bold-6e" x="1244.580078"/>
     <use xlink:href="#DejaVuSans-Bold-41" x="1315.771484"/>
     <use xlink:href="#DejaVuSans-Bold-72" x="1393.164062"/>
     <use xlink:href="#DejaVuSans-Bold-61" x="1442.480469"/>
     <use xlink:href="#DejaVuSans-Bold-29" x="1509.960938"/>
    </g>
   </g>
   <g id="text_14">
    <!-- Chirality -->
    <g style="fill: #ffffff" transform="translate(255.043484 243.389841) scale(0.074 -0.074)">
     <use xlink:href="#DejaVuSans-Bold-43"/>
     <use xlink:href="#DejaVuSans-Bold-68" x="73.388672"/>
     <use xlink:href="#DejaVuSans-Bold-69" x="144.580078"/>
     <use xlink:href="#DejaVuSans-Bold-72" x="178.857422"/>
     <use xlink:href="#DejaVuSans-Bold-61" x="228.173828"/>
     <use xlink:href="#DejaVuSans-Bold-6c" x="295.654297"/>
     <use xlink:href="#DejaVuSans-Bold-69" x="329.931641"/>
     <use xlink:href="#DejaVuSans-Bold-74" x="364.208984"/>
     <use xlink:href="#DejaVuSans-Bold-79" x="412.011719"/>
    </g>
    <!-- veto -->
    <g style="fill: #ffffff" transform="translate(263.467922 251.734034) scale(0.074 -0.074)">
     <defs>
      <path id="DejaVuSans-Bold-76" d="M 97 3500 
L 1216 3500 
L 2088 1081 
L 2956 3500 
L 4078 3500 
L 2700 0 
L 1472 0 
L 97 3500 
z
" transform="scale(0.015625)"/>
     </defs>
     <use xlink:href="#DejaVuSans-Bold-76"/>
     <use xlink:href="#DejaVuSans-Bold-65" x="65.185547"/>
     <use xlink:href="#DejaVuSans-Bold-74" x="133.007812"/>
     <use xlink:href="#DejaVuSans-Bold-6f" x="180.810547"/>
    </g>
   </g>
   <g id="text_15">
    <!-- Coiled-coil -->
    <g style="fill: #ffffff" transform="translate(358.939953 239.24665) scale(0.074 -0.074)">
     <use xlink:href="#DejaVuSans-Bold-43"/>
     <use xlink:href="#DejaVuSans-Bold-6f" x="73.388672"/>
     <use xlink:href="#DejaVuSans-Bold-69" x="142.089844"/>
     <use xlink:href="#DejaVuSans-Bold-6c" x="176.367188"/>
     <use xlink:href="#DejaVuSans-Bold-65" x="210.644531"/>
     <use xlink:href="#DejaVuSans-Bold-64" x="278.466797"/>
     <use xlink:href="#DejaVuSans-Bold-2d" x="350.048828"/>
     <use xlink:href="#DejaVuSans-Bold-63" x="391.552734"/>
     <use xlink:href="#DejaVuSans-Bold-6f" x="450.830078"/>
     <use xlink:href="#DejaVuSans-Bold-69" x="519.53125"/>
     <use xlink:href="#DejaVuSans-Bold-6c" x="553.808594"/>
    </g>
    <!-- periodicity -->
    <g style="fill: #ffffff" transform="translate(358.347953 247.533031) scale(0.074 -0.074)">
     <use xlink:href="#DejaVuSans-Bold-70"/>
     <use xlink:href="#DejaVuSans-Bold-65" x="71.582031"/>
     <use xlink:href="#DejaVuSans-Bold-72" x="139.404297"/>
     <use xlink:href="#DejaVuSans-Bold-69" x="188.720703"/>
     <use xlink:href="#DejaVuSans-Bold-6f" x="222.998047"/>
     <use xlink:href="#DejaVuSans-Bold-64" x="291.699219"/>
     <use xlink:href="#DejaVuSans-Bold-69" x="363.28125"/>
     <use xlink:href="#DejaVuSans-Bold-63" x="397.558594"/>
     <use xlink:href="#DejaVuSans-Bold-69" x="456.835938"/>
     <use xlink:href="#DejaVuSans-Bold-74" x="491.113281"/>
     <use xlink:href="#DejaVuSans-Bold-79" x="538.916016"/>
    </g>
    <!-- (alpha) -->
    <g style="fill: #ffffff" transform="translate(365.773391 255.877225) scale(0.074 -0.074)">
     <use xlink:href="#DejaVuSans-Bold-28"/>
     <use xlink:href="#DejaVuSans-Bold-61" x="45.703125"/>
     <use xlink:href="#DejaVuSans-Bold-6c" x="113.183594"/>
     <use xlink:href="#DejaVuSans-Bold-70" x="147.460938"/>
     <use xlink:href="#DejaVuSans-Bold-68" x="219.042969"/>
     <use xlink:href="#DejaVuSans-Bold-61" x="290.234375"/>
     <use xlink:href="#DejaVuSans-Bold-29" x="357.714844"/>
    </g>
   </g>
   <g id="text_16">
    <!-- MetalHawk -->
    <g style="fill: #ffffff" transform="translate(465.502156 239.217744) scale(0.074 -0.074)">
     <defs>
      <path id="DejaVuSans-Bold-77" d="M 225 3500 
L 1313 3500 
L 1900 1088 
L 2491 3500 
L 3425 3500 
L 4013 1113 
L 4603 3500 
L 5691 3500 
L 4769 0 
L 3547 0 
L 2956 2406 
L 2369 0 
L 1147 0 
L 225 3500 
z
" transform="scale(0.015625)"/>
      <path id="DejaVuSans-Bold-6b" d="M 538 4863 
L 1656 4863 
L 1656 2216 
L 2944 3500 
L 4244 3500 
L 2534 1894 
L 4378 0 
L 3022 0 
L 1656 1459 
L 1656 0 
L 538 0 
L 538 4863 
z
" transform="scale(0.015625)"/>
     </defs>
     <use xlink:href="#DejaVuSans-Bold-4d"/>
     <use xlink:href="#DejaVuSans-Bold-65" x="99.511719"/>
     <use xlink:href="#DejaVuSans-Bold-74" x="167.333984"/>
     <use xlink:href="#DejaVuSans-Bold-61" x="215.136719"/>
     <use xlink:href="#DejaVuSans-Bold-6c" x="282.617188"/>
     <use xlink:href="#DejaVuSans-Bold-48" x="316.894531"/>
     <use xlink:href="#DejaVuSans-Bold-61" x="400.585938"/>
     <use xlink:href="#DejaVuSans-Bold-77" x="468.066406"/>
     <use xlink:href="#DejaVuSans-Bold-6b" x="560.449219"/>
    </g>
    <!-- metal-geometry -->
    <g style="fill: #ffffff" transform="translate(455.195344 247.504125) scale(0.074 -0.074)">
     <use xlink:href="#DejaVuSans-Bold-6d"/>
     <use xlink:href="#DejaVuSans-Bold-65" x="104.199219"/>
     <use xlink:href="#DejaVuSans-Bold-74" x="172.021484"/>
     <use xlink:href="#DejaVuSans-Bold-61" x="219.824219"/>
     <use xlink:href="#DejaVuSans-Bold-6c" x="287.304688"/>
     <use xlink:href="#DejaVuSans-Bold-2d" x="321.582031"/>
     <use xlink:href="#DejaVuSans-Bold-67" x="363.085938"/>
     <use xlink:href="#DejaVuSans-Bold-65" x="434.667969"/>
     <use xlink:href="#DejaVuSans-Bold-6f" x="502.490234"/>
     <use xlink:href="#DejaVuSans-Bold-6d" x="571.191406"/>
     <use xlink:href="#DejaVuSans-Bold-65" x="675.390625"/>
     <use xlink:href="#DejaVuSans-Bold-74" x="743.212891"/>
     <use xlink:href="#DejaVuSans-Bold-72" x="791.015625"/>
     <use xlink:href="#DejaVuSans-Bold-79" x="840.332031"/>
    </g>
    <!-- gate -->
    <g style="fill: #ffffff" transform="translate(479.276563 255.848319) scale(0.074 -0.074)">
     <use xlink:href="#DejaVuSans-Bold-67"/>
     <use xlink:href="#DejaVuSans-Bold-61" x="71.582031"/>
     <use xlink:href="#DejaVuSans-Bold-74" x="139.0625"/>
     <use xlink:href="#DejaVuSans-Bold-65" x="186.865234"/>
    </g>
   </g>
   <g id="text_17">
    <!-- ABC / EA -->
    <g style="fill: #ffffff" transform="translate(578.982203 239.24665) scale(0.074 -0.074)">
     <use xlink:href="#DejaVuSans-Bold-41"/>
     <use xlink:href="#DejaVuSans-Bold-42" x="77.392578"/>
     <use xlink:href="#DejaVuSans-Bold-43" x="153.613281"/>
     <use xlink:href="#DejaVuSans-Bold-20" x="227.001953"/>
     <use xlink:href="#DejaVuSans-Bold-2f" x="261.816406"/>
     <use xlink:href="#DejaVuSans-Bold-20" x="298.339844"/>
     <use xlink:href="#DejaVuSans-Bold-45" x="333.154297"/>
     <use xlink:href="#DejaVuSans-Bold-41" x="401.464844"/>
    </g>
    <!-- mixed-chirality -->
    <g style="fill: #ffffff" transform="translate(565.361578 247.533031) scale(0.074 -0.074)">
     <use xlink:href="#DejaVuSans-Bold-6d"/>
     <use xlink:href="#DejaVuSans-Bold-69" x="104.199219"/>
     <use xlink:href="#DejaVuSans-Bold-78" x="138.476562"/>
     <use xlink:href="#DejaVuSans-Bold-65" x="202.978516"/>
     <use xlink:href="#DejaVuSans-Bold-64" x="270.800781"/>
     <use xlink:href="#DejaVuSans-Bold-2d" x="342.382812"/>
     <use xlink:href="#DejaVuSans-Bold-63" x="383.886719"/>
     <use xlink:href="#DejaVuSans-Bold-68" x="443.164062"/>
     <use xlink:href="#DejaVuSans-Bold-69" x="514.355469"/>
     <use xlink:href="#DejaVuSans-Bold-72" x="548.632812"/>
     <use xlink:href="#DejaVuSans-Bold-61" x="597.949219"/>
     <use xlink:href="#DejaVuSans-Bold-6c" x="665.429688"/>
     <use xlink:href="#DejaVuSans-Bold-69" x="699.707031"/>
     <use xlink:href="#DejaVuSans-Bold-74" x="733.984375"/>
     <use xlink:href="#DejaVuSans-Bold-79" x="781.787109"/>
    </g>
    <!-- search -->
    <g style="fill: #ffffff" transform="translate(582.839453 255.877225) scale(0.074 -0.074)">
     <use xlink:href="#DejaVuSans-Bold-73"/>
     <use xlink:href="#DejaVuSans-Bold-65" x="59.521484"/>
     <use xlink:href="#DejaVuSans-Bold-61" x="127.34375"/>
     <use xlink:href="#DejaVuSans-Bold-72" x="194.824219"/>
     <use xlink:href="#DejaVuSans-Bold-63" x="244.140625"/>
     <use xlink:href="#DejaVuSans-Bold-68" x="303.417969"/>
    </g>
   </g>
   <g id="text_18">
    <!-- alpha (helical, vs target) -->
    <g style="fill: #1f2933" transform="translate(68.56125 275.41625) scale(0.08 -0.08)">
     <defs>
      <path id="DejaVuSans-Bold-2c" d="M 653 1209 
L 1778 1209 
L 1778 256 
L 1006 -909 
L 341 -909 
L 653 256 
L 653 1209 
z
" transform="scale(0.015625)"/>
     </defs>
     <use xlink:href="#DejaVuSans-Bold-61"/>
     <use xlink:href="#DejaVuSans-Bold-6c" x="67.480469"/>
     <use xlink:href="#DejaVuSans-Bold-70" x="101.757812"/>
     <use xlink:href="#DejaVuSans-Bold-68" x="173.339844"/>
     <use xlink:href="#DejaVuSans-Bold-61" x="244.53125"/>
     <use xlink:href="#DejaVuSans-Bold-20" x="312.011719"/>
     <use xlink:href="#DejaVuSans-Bold-28" x="346.826172"/>
     <use xlink:href="#DejaVuSans-Bold-68" x="392.529297"/>
     <use xlink:href="#DejaVuSans-Bold-65" x="463.720703"/>
     <use xlink:href="#DejaVuSans-Bold-6c" x="531.542969"/>
     <use xlink:href="#DejaVuSans-Bold-69" x="565.820312"/>
     <use xlink:href="#DejaVuSans-Bold-63" x="600.097656"/>
     <use xlink:href="#DejaVuSans-Bold-61" x="659.375"/>
     <use xlink:href="#DejaVuSans-Bold-6c" x="726.855469"/>
     <use xlink:href="#DejaVuSans-Bold-2c" x="761.132812"/>
     <use xlink:href="#DejaVuSans-Bold-20" x="799.121094"/>
     <use xlink:href="#DejaVuSans-Bold-76" x="833.935547"/>
     <use xlink:href="#DejaVuSans-Bold-73" x="899.121094"/>
     <use xlink:href="#DejaVuSans-Bold-20" x="958.642578"/>
     <use xlink:href="#DejaVuSans-Bold-74" x="993.457031"/>
     <use xlink:href="#DejaVuSans-Bold-61" x="1041.259766"/>
     <use xlink:href="#DejaVuSans-Bold-72" x="1108.740234"/>
     <use xlink:href="#DejaVuSans-Bold-67" x="1158.056641"/>
     <use xlink:href="#DejaVuSans-Bold-65" x="1229.638672"/>
     <use xlink:href="#DejaVuSans-Bold-74" x="1297.460938"/>
     <use xlink:href="#DejaVuSans-Bold-29" x="1345.263672"/>
    </g>
   </g>
   <g id="text_19">
    <!-- non_alpha (cystine-knot / ICK) -->
    <g style="fill: #1f2933" transform="translate(56.4275 310.97625) scale(0.08 -0.08)">
     <defs>
      <path id="DejaVuSans-Bold-5f" d="M 3200 -916 
L 3200 -1509 
L 0 -1509 
L 0 -916 
L 3200 -916 
z
" transform="scale(0.015625)"/>
      <path id="DejaVuSans-Bold-4b" d="M 588 4666 
L 1791 4666 
L 1791 2963 
L 3525 4666 
L 4922 4666 
L 2675 2456 
L 5153 0 
L 3647 0 
L 1791 1838 
L 1791 0 
L 588 0 
L 588 4666 
z
" transform="scale(0.015625)"/>
     </defs>
     <use xlink:href="#DejaVuSans-Bold-6e"/>
     <use xlink:href="#DejaVuSans-Bold-6f" x="71.191406"/>
     <use xlink:href="#DejaVuSans-Bold-6e" x="139.892578"/>
     <use xlink:href="#DejaVuSans-Bold-5f" x="211.083984"/>
     <use xlink:href="#DejaVuSans-Bold-61" x="261.083984"/>
     <use xlink:href="#DejaVuSans-Bold-6c" x="328.564453"/>
     <use xlink:href="#DejaVuSans-Bold-70" x="362.841797"/>
     <use xlink:href="#DejaVuSans-Bold-68" x="434.423828"/>
     <use xlink:href="#DejaVuSans-Bold-61" x="505.615234"/>
     <use xlink:href="#DejaVuSans-Bold-20" x="573.095703"/>
     <use xlink:href="#DejaVuSans-Bold-28" x="607.910156"/>
     <use xlink:href="#DejaVuSans-Bold-63" x="653.613281"/>
     <use xlink:href="#DejaVuSans-Bold-79" x="712.890625"/>
     <use xlink:href="#DejaVuSans-Bold-73" x="778.076172"/>
     <use xlink:href="#DejaVuSans-Bold-74" x="837.597656"/>
     <use xlink:href="#DejaVuSans-Bold-69" x="885.400391"/>
     <use xlink:href="#DejaVuSans-Bold-6e" x="919.677734"/>
     <use xlink:href="#DejaVuSans-Bold-65" x="990.869141"/>
     <use xlink:href="#DejaVuSans-Bold-2d" x="1058.691406"/>
     <use xlink:href="#DejaVuSans-Bold-6b" x="1100.195312"/>
     <use xlink:href="#DejaVuSans-Bold-6e" x="1166.699219"/>
     <use xlink:href="#DejaVuSans-Bold-6f" x="1237.890625"/>
     <use xlink:href="#DejaVuSans-Bold-74" x="1306.591797"/>
     <use xlink:href="#DejaVuSans-Bold-20" x="1354.394531"/>
     <use xlink:href="#DejaVuSans-Bold-2f" x="1389.208984"/>
     <use xlink:href="#DejaVuSans-Bold-20" x="1425.732422"/>
     <use xlink:href="#DejaVuSans-Bold-49" x="1460.546875"/>
     <use xlink:href="#DejaVuSans-Bold-43" x="1497.753906"/>
     <use xlink:href="#DejaVuSans-Bold-4b" x="1571.142578"/>
     <use xlink:href="#DejaVuSans-Bold-29" x="1648.632812"/>
    </g>
   </g>
   <g id="text_20">
    <!-- cyclic (free or metal) -->
    <g style="fill: #1f2933" transform="translate(77.179375 346.69625) scale(0.08 -0.08)">
     <defs>
      <path id="DejaVuSans-Bold-66" d="M 2841 4863 
L 2841 4128 
L 2222 4128 
Q 1984 4128 1890 4042 
Q 1797 3956 1797 3744 
L 1797 3500 
L 2753 3500 
L 2753 2700 
L 1797 2700 
L 1797 0 
L 678 0 
L 678 2700 
L 122 2700 
L 122 3500 
L 678 3500 
L 678 3744 
Q 678 4316 997 4589 
Q 1316 4863 1984 4863 
L 2841 4863 
z
" transform="scale(0.015625)"/>
     </defs>
     <use xlink:href="#DejaVuSans-Bold-63"/>
     <use xlink:href="#DejaVuSans-Bold-79" x="59.277344"/>
     <use xlink:href="#DejaVuSans-Bold-63" x="124.462891"/>
     <use xlink:href="#DejaVuSans-Bold-6c" x="183.740234"/>
     <use xlink:href="#DejaVuSans-Bold-69" x="218.017578"/>
     <use xlink:href="#DejaVuSans-Bold-63" x="252.294922"/>
     <use xlink:href="#DejaVuSans-Bold-20" x="311.572266"/>
     <use xlink:href="#DejaVuSans-Bold-28" x="346.386719"/>
     <use xlink:href="#DejaVuSans-Bold-66" x="392.089844"/>
     <use xlink:href="#DejaVuSans-Bold-72" x="435.595703"/>
     <use xlink:href="#DejaVuSans-Bold-65" x="484.912109"/>
     <use xlink:href="#DejaVuSans-Bold-65" x="552.734375"/>
     <use xlink:href="#DejaVuSans-Bold-20" x="620.556641"/>
     <use xlink:href="#DejaVuSans-Bold-6f" x="655.371094"/>
     <use xlink:href="#DejaVuSans-Bold-72" x="724.072266"/>
     <use xlink:href="#DejaVuSans-Bold-20" x="773.388672"/>
     <use xlink:href="#DejaVuSans-Bold-6d" x="808.203125"/>
     <use xlink:href="#DejaVuSans-Bold-65" x="912.402344"/>
     <use xlink:href="#DejaVuSans-Bold-74" x="980.224609"/>
     <use xlink:href="#DejaVuSans-Bold-61" x="1028.027344"/>
     <use xlink:href="#DejaVuSans-Bold-6c" x="1095.507812"/>
     <use xlink:href="#DejaVuSans-Bold-29" x="1129.785156"/>
    </g>
   </g>
   <g id="text_21">
    <!-- no-target (intramolecular) -->
    <g style="fill: #1f2933" transform="translate(64.75875 382.33625) scale(0.08 -0.08)">
     <use xlink:href="#DejaVuSans-Bold-6e"/>
     <use xlink:href="#DejaVuSans-Bold-6f" x="71.191406"/>
     <use xlink:href="#DejaVuSans-Bold-2d" x="139.892578"/>
     <use xlink:href="#DejaVuSans-Bold-74" x="181.396484"/>
     <use xlink:href="#DejaVuSans-Bold-61" x="229.199219"/>
     <use xlink:href="#DejaVuSans-Bold-72" x="296.679688"/>
     <use xlink:href="#DejaVuSans-Bold-67" x="345.996094"/>
     <use xlink:href="#DejaVuSans-Bold-65" x="417.578125"/>
     <use xlink:href="#DejaVuSans-Bold-74" x="485.400391"/>
     <use xlink:href="#DejaVuSans-Bold-20" x="533.203125"/>
     <use xlink:href="#DejaVuSans-Bold-28" x="568.017578"/>
     <use xlink:href="#DejaVuSans-Bold-69" x="613.720703"/>
     <use xlink:href="#DejaVuSans-Bold-6e" x="647.998047"/>
     <use xlink:href="#DejaVuSans-Bold-74" x="719.189453"/>
     <use xlink:href="#DejaVuSans-Bold-72" x="766.992188"/>
     <use xlink:href="#DejaVuSans-Bold-61" x="816.308594"/>
     <use xlink:href="#DejaVuSans-Bold-6d" x="883.789062"/>
     <use xlink:href="#DejaVuSans-Bold-6f" x="987.988281"/>
     <use xlink:href="#DejaVuSans-Bold-6c" x="1056.689453"/>
     <use xlink:href="#DejaVuSans-Bold-65" x="1090.966797"/>
     <use xlink:href="#DejaVuSans-Bold-63" x="1158.789062"/>
     <use xlink:href="#DejaVuSans-Bold-75" x="1218.066406"/>
     <use xlink:href="#DejaVuSans-Bold-6c" x="1289.257812"/>
     <use xlink:href="#DejaVuSans-Bold-61" x="1323.535156"/>
     <use xlink:href="#DejaVuSans-Bold-72" x="1391.015625"/>
     <use xlink:href="#DejaVuSans-Bold-29" x="1440.332031"/>
    </g>
   </g>
   <g id="legend_1">
    <g id="patch_28">
     <path d="M 310.86 383.58 
L 428.741719 383.58 
Q 430.541719 383.58 430.541719 381.78 
L 430.541719 302.228437 
Q 430.541719 300.428437 428.741719 300.428437 
L 310.86 300.428437 
Q 309.06 300.428437 309.06 302.228437 
L 309.06 381.78 
Q 309.06 383.58 310.86 383.58 
z
" style="fill: #f7f9fa; opacity: 0.8; stroke: #0f1b24; stroke-linejoin: miter"/>
    </g>
    <g id="text_22">
     <!-- key -->
     <g style="fill: #1f2933" transform="translate(361.925859 314.467031) scale(0.09 -0.09)">
      <defs>
       <path id="DejaVuSans-6b" d="M 581 4863 
L 1159 4863 
L 1159 1991 
L 2875 3500 
L 3609 3500 
L 1753 1863 
L 3688 0 
L 2938 0 
L 1159 1709 
L 1159 0 
L 581 0 
L 581 4863 
z
" transform="scale(0.015625)"/>
      </defs>
      <use xlink:href="#DejaVuSans-6b"/>
      <use xlink:href="#DejaVuSans-65" x="54.285156"/>
      <use xlink:href="#DejaVuSans-79" x="115.808594"/>
     </g>
    </g>
    <g id="patch_29">
     <path d="M 316.26 329.477344 
L 334.26 329.477344 
L 334.26 323.177344 
L 316.26 323.177344 
z
" style="fill: #334e68; stroke: #0f1b24; stroke-linejoin: miter"/>
    </g>
    <g id="text_23">
     <!-- stage -->
     <g style="fill: #1f2933" transform="translate(341.46 329.477344) scale(0.09 -0.09)">
      <use xlink:href="#DejaVuSans-73"/>
      <use xlink:href="#DejaVuSans-74" x="52.099609"/>
      <use xlink:href="#DejaVuSans-61" x="91.308594"/>
      <use xlink:href="#DejaVuSans-67" x="152.587891"/>
      <use xlink:href="#DejaVuSans-65" x="216.064453"/>
     </g>
    </g>
    <g id="patch_30">
     <path d="M 316.26 344.487656 
L 334.26 344.487656 
L 334.26 338.187656 
L 316.26 338.187656 
z
" style="fill: #e07a5f; stroke: #0f1b24; stroke-linejoin: miter"/>
    </g>
    <g id="text_24">
     <!-- gate -->
     <g style="fill: #1f2933" transform="translate(341.46 344.487656) scale(0.09 -0.09)">
      <use xlink:href="#DejaVuSans-67"/>
      <use xlink:href="#DejaVuSans-61" x="63.476562"/>
      <use xlink:href="#DejaVuSans-74" x="124.755859"/>
      <use xlink:href="#DejaVuSans-65" x="163.964844"/>
     </g>
    </g>
    <g id="patch_31">
     <path d="M 316.26 359.497969 
L 334.26 359.497969 
L 334.26 353.197969 
L 316.26 353.197969 
z
" style="fill: #d9a531; stroke: #0f1b24; stroke-linejoin: miter"/>
    </g>
    <g id="text_25">
     <!-- class -->
     <g style="fill: #1f2933" transform="translate(341.46 359.497969) scale(0.09 -0.09)">
      <use xlink:href="#DejaVuSans-63"/>
      <use xlink:href="#DejaVuSans-6c" x="54.980469"/>
      <use xlink:href="#DejaVuSans-61" x="82.763672"/>
      <use xlink:href="#DejaVuSans-73" x="144.042969"/>
      <use xlink:href="#DejaVuSans-73" x="196.142578"/>
     </g>
    </g>
    <g id="line2d_1">
     <path d="M 316.26 371.358281 
L 325.26 371.358281 
L 334.26 371.358281 
" style="fill: none; stroke: #2c7a7b; stroke-width: 2.4; stroke-linecap: square"/>
    </g>
    <g id="text_26">
     <!-- iterative feedback -->
     <g style="fill: #1f2933" transform="translate(341.46 374.508281) scale(0.09 -0.09)">
      <defs>
       <path id="DejaVuSans-76" d="M 191 3500 
L 800 3500 
L 1894 563 
L 2988 3500 
L 3597 3500 
L 2284 0 
L 1503 0 
L 191 3500 
z
" transform="scale(0.015625)"/>
       <path id="DejaVuSans-62" d="M 3116 1747 
Q 3116 2381 2855 2742 
Q 2594 3103 2138 3103 
Q 1681 3103 1420 2742 
Q 1159 2381 1159 1747 
Q 1159 1113 1420 752 
Q 1681 391 2138 391 
Q 2594 391 2855 752 
Q 3116 1113 3116 1747 
z
M 1159 2969 
Q 1341 3281 1617 3432 
Q 1894 3584 2278 3584 
Q 2916 3584 3314 3078 
Q 3713 2572 3713 1747 
Q 3713 922 3314 415 
Q 2916 -91 2278 -91 
Q 1894 -91 1617 61 
Q 1341 213 1159 525 
L 1159 0 
L 581 0 
L 581 4863 
L 1159 4863 
L 1159 2969 
z
" transform="scale(0.015625)"/>
      </defs>
      <use xlink:href="#DejaVuSans-69"/>
      <use xlink:href="#DejaVuSans-74" x="27.783203"/>
      <use xlink:href="#DejaVuSans-65" x="66.992188"/>
      <use xlink:href="#DejaVuSans-72" x="128.515625"/>
      <use xlink:href="#DejaVuSans-61" x="169.628906"/>
      <use xlink:href="#DejaVuSans-74" x="230.908203"/>
      <use xlink:href="#DejaVuSans-69" x="270.117188"/>
      <use xlink:href="#DejaVuSans-76" x="297.900391"/>
      <use xlink:href="#DejaVuSans-65" x="357.080078"/>
      <use xlink:href="#DejaVuSans-20" x="418.603516"/>
      <use xlink:href="#DejaVuSans-66" x="450.390625"/>
      <use xlink:href="#DejaVuSans-65" x="485.595703"/>
      <use xlink:href="#DejaVuSans-65" x="547.119141"/>
      <use xlink:href="#DejaVuSans-64" x="608.642578"/>
      <use xlink:href="#DejaVuSans-62" x="672.119141"/>
      <use xlink:href="#DejaVuSans-61" x="735.595703"/>
      <use xlink:href="#DejaVuSans-63" x="796.875"/>
      <use xlink:href="#DejaVuSans-6b" x="851.855469"/>
     </g>
    </g>
   </g>
  </g>
 </g>
 <defs>
  <clipPath id="p1af1b649ff">
   <rect x="0" y="0" width="648" height="396"/>
  </clipPath>
 </defs>
</svg>
